<?xml version="1.0" encoding="utf-8"?>
<!-- Generator: Adobe Illustrator 21.1.0, SVG Export Plug-In . SVG Version: 6.00 Build 0)  -->
<svg version="1.1" id="Layer_1" xmlns="http://www.w3.org/2000/svg" xmlns:xlink="http://www.w3.org/1999/xlink" x="0px" y="0px"
	 viewBox="0 0 716 716" style="enable-background:new 0 0 716 716;" xml:space="preserve">
<style type="text/css">
	.st0{fill:#FFFF00;}
</style>
<circle cx="358.2" cy="358.7" r="356.7"/>
<g>
	<path class="st0" d="M224.9,366.1c-11.7,0-17-9.2-14.6-25.3c2.3-15.5,10.2-24.5,21.8-24.8c0.2,0,0.5,0,0.7,0
		c7.4,0,12.2,3.7,13.9,10.6c1.3,4.9,0.7,10.3,0.2,13.9C243.8,361.7,233.2,366.1,224.9,366.1 M269.3,308.1
		c-3.2-3.5-12.9-11.8-33.3-12h-0.4c-29.7,0-51.6,18-55.7,45.8c-3.1,21.3,6,44.1,41,44.1c30.7,0,52.3-17.1,56.4-44.6
		C279.3,328.5,276.2,315.7,269.3,308.1"/>
	<path class="st0" d="M508.7,328.4c1.5-4,5.3-14.6,17.4-14.6c5.6,0,11.5,3.3,12.2,10.6c0.1,1.1,0,2.1,0,3c0,0.4-0.1,0.8-0.1,1.3
		l-0.1,2.5h-30.5L508.7,328.4z M538.1,355.3c-3.8,5.3-9.2,10.7-18.4,10.7c-3.3,0-8-0.8-11.3-4.7c-3.8-4.4-3.3-9.6-2.8-13.7l0.2-2.4
		h61c1.5-12.5,2.6-25.3-7.2-36.6c-9-10.2-22.2-12.3-31.6-12.3c-27.4,0-48.4,17.9-52.4,44.6c-3.3,22.5,7.5,45.3,39.3,45.3
		c18.8,0,33.9-6.8,46-20.7L538.1,355.3z"/>
	<path class="st0" d="M178.6,263.1c-12.2,2.4-23,11.7-27.1,23.5l-14.2,95.9h30.4l17.6-119.4H178.6z"/>
	<path class="st0" d="M432.8,359.5c-3.3,2.9-7.3,4.5-11,4.5c-4,0-7.5-1.6-9.7-4.4c-3.1-3.9-4-10.1-2.7-18.7
		c0.6-4.1,1.4-7.5,2.7-10.7l0-0.1c5-11.7,13.8-12.6,16.5-12.6c4.9,0,11.2,3.1,12.5,11.7c0.7,3.8,0.3,7.8-0.3,11.6
		C440.1,345.5,438.8,354.2,432.8,359.5 M475.8,263.1c-12.1,2-23.1,10.8-27.7,22.2l-3.4,23.2l-3.5-3.6c-2.9-3.1-7.4-7.7-19.3-7.7
		c-17.8,0-37.8,13-42,41.9c-4.1,27.7,7.8,45.6,30.3,45.6c4.7,0,8.8-0.7,12.7-2c4.7-1.7,6.4-3.3,8.9-5.8l4.5-4.4l-1.5,10.1H464
		l17.6-119.4H475.8z"/>
	<path class="st0" d="M626.6,359.5c-3.3,2.9-7.3,4.5-11,4.5c-4,0-7.5-1.6-9.7-4.4c-3.1-3.9-4-10.1-2.7-18.7
		c0.6-4.1,1.4-7.5,2.7-10.7l0-0.1c5-11.7,13.8-12.6,16.5-12.6c4.9,0,11.2,3.1,12.5,11.7c0.7,3.8,0.3,7.8-0.3,11.6
		C633.8,345.5,632.5,354.2,626.6,359.5 M669.5,263.1c-12.1,2-23.1,10.8-27.7,22.2l-3.4,23.2l-3.5-3.6c-2.9-3.1-7.4-7.7-19.3-7.7
		c-17.8,0-37.8,13-42,41.9c-4.1,27.7,7.8,45.6,30.3,45.6c4.7,0,8.8-0.7,12.7-2c4.7-1.7,6.4-3.3,8.9-5.8l4.5-4.4l-1.5,10.1h29.3
		l17.6-119.4H669.5z"/>
	<path class="st0" d="M370.1,305c-4.5-4.9-11.6-7.5-20.9-7.5c-17.7,0-25,8.6-28.5,12.7l-5,5.9l2.4-16.4h-3.6
		c-12.5,1.9-23.8,11.2-28.3,23.1l-8.8,59.7h30.3l6.5-44.3c0.6-4.1,2.4-16.5,17.3-16.5c14,0,12.3,11.6,11.7,15.3l-6.7,45.4h30.3
		l7.8-52.9C375.7,321.9,376.2,312.1,370.1,305"/>
	<path class="st0" d="M99.7,359.7c-3,2.8-7,4.4-11,4.4c-1.8,0-10.9-0.6-12.5-11.9c-0.5-3.5-0.2-7.1,0.4-11.4
		c0.6-4.2,1.9-13,8.1-18.7l0.1-0.1c3.3-2.9,7.3-4.5,11-4.5c2.6,0,11.2,0.9,12.7,12.6l0,0.1c0.2,3.3,0.1,6.7-0.5,10.7
		C106.7,349.6,104,355.7,99.7,359.7 M108.3,297.2c-12.3,0-18.3,5-21.9,8l-4.3,3.6l6.7-45.6h-6.2c-12.9,2.5-24.4,12.9-27.8,25.7
		L41,382.6h29.3l1.5-10.1l3.2,4.4c1.8,2.5,3,4.1,7.2,5.8c3.4,1.4,7.3,2,11.9,2c22.6,0,39.8-17.9,43.9-45.6
		C142.3,310.2,126.2,297.2,108.3,297.2"/>
</g>
<polygon class="st0" points="613.8,506.3 89.2,532.5 102.6,440.6 627.2,414.3 "/>
<g>
	<path d="M128.9,457.8l9.5-0.5l-7.2,46.5l27.3-1.4l-1.3,8.3l-36.8,1.9L128.9,457.8z"/>
	<path d="M165,487.8c-0.3-5.7,0.3-10.6,1.8-14.9c1.5-4.3,3.5-7.8,6.2-10.7c2.6-2.8,5.6-5,9-6.5c3.4-1.5,6.9-2.3,10.4-2.5
		c3.5-0.2,6.8,0.2,9.8,1.3c3,1,5.6,2.5,7.7,4.5c2.2,2,3.9,4.4,5.2,7.2c1.3,2.8,2,6,2.2,9.5c0.3,5.7-0.3,10.7-1.7,14.9
		c-1.4,4.2-3.4,7.8-5.9,10.6c-2.5,2.8-5.5,5-8.9,6.5c-3.4,1.5-6.9,2.3-10.5,2.5c-3.9,0.2-7.4-0.2-10.4-1.3s-5.6-2.6-7.8-4.6
		c-2.1-2-3.8-4.5-5-7.3C165.8,494.2,165.2,491.2,165,487.8z M174.5,487c0.3,5.1,1.8,9,4.5,11.7c2.7,2.8,6.5,4,11.2,3.8
		c3.1-0.2,5.8-1,8.1-2.6c2.3-1.6,4.2-3.6,5.6-6.1c1.5-2.5,2.5-5.2,3.2-8.2c0.6-3,0.9-6.1,0.7-9.1c-0.3-5.1-1.7-9-4.3-11.7
		s-6.3-4-11-3.8c-3.2,0.2-6,1-8.4,2.6c-2.3,1.6-4.2,3.6-5.7,6.1c-1.5,2.5-2.5,5.2-3.2,8.2C174.6,481,174.3,484,174.5,487z"/>
	<path d="M230.6,489c0,4.2,1.2,7.1,3.6,8.7c2.4,1.6,5.5,2.3,9.5,2.1c1.3-0.1,2.6-0.3,4-0.7c1.4-0.4,2.7-0.9,3.8-1.7
		c1.1-0.7,2.1-1.7,2.8-2.8c0.7-1.2,1.1-2.5,1-4.1c-0.1-1.5-0.5-2.8-1.3-3.7c-0.8-1-1.8-1.8-3-2.4c-1.2-0.6-2.6-1.1-4.2-1.5
		c-1.6-0.4-3.2-0.8-4.9-1.2c-1.2-0.2-2.7-0.6-4.4-1.1c-1.7-0.5-3.4-1.2-5-2.1c-1.6-0.9-3-2.2-4.2-3.8c-1.2-1.6-1.8-3.7-2-6.3
		c-0.1-2.4,0.2-4.7,1-6.8c0.8-2.1,2-4,3.7-5.5c1.6-1.6,3.7-2.9,6.2-3.8c2.5-1,5.3-1.5,8.5-1.7c2.8-0.1,5.5,0,8,0.5
		c2.5,0.5,4.7,1.4,6.6,2.6c1.9,1.3,3.4,3,4.5,5.1c1.1,2.1,1.7,4.8,1.8,8l-9.1,0.5c-0.2-3.4-1.3-5.8-3.2-7.2c-1.9-1.4-4.7-2-8.4-1.8
		c-0.7,0-1.6,0.2-2.7,0.4c-1.2,0.2-2.3,0.6-3.4,1.2c-1.1,0.6-2.1,1.5-2.9,2.5c-0.8,1.1-1.2,2.5-1.1,4.4c0.1,1.3,0.4,2.4,1.1,3.3
		c0.6,0.9,1.5,1.6,2.6,2.1c1.1,0.5,2.3,1,3.7,1.3c1.4,0.3,2.9,0.6,4.4,0.9c2,0.4,3.9,0.9,5.9,1.3c2,0.5,3.8,1.2,5.4,2.3
		c1.7,1,3,2.4,4.1,4.1c1.1,1.7,1.7,4,1.8,6.8c0.1,2.1-0.2,4.2-0.9,6.4c-0.7,2.1-1.9,4.1-3.6,5.8c-1.7,1.8-4,3.2-6.8,4.4
		c-2.8,1.2-6.3,1.9-10.4,2.1c-3.2,0.2-6.1-0.1-8.7-0.7c-2.6-0.6-4.9-1.6-6.7-3.1c-1.9-1.5-3.3-3.4-4.4-5.8c-1.1-2.4-1.6-5.3-1.7-8.7
		L230.6,489z"/>
	<path d="M301.1,485.4c0,4.2,1.2,7.1,3.6,8.7s5.5,2.3,9.5,2.1c1.3-0.1,2.6-0.3,4-0.7c1.4-0.4,2.7-0.9,3.8-1.7
		c1.1-0.7,2.1-1.7,2.8-2.8c0.7-1.2,1.1-2.5,1-4.1c-0.1-1.5-0.5-2.8-1.3-3.7c-0.8-1-1.8-1.8-3-2.4c-1.2-0.6-2.6-1.1-4.2-1.5
		c-1.6-0.4-3.2-0.8-4.9-1.2c-1.2-0.2-2.7-0.6-4.4-1.1c-1.7-0.5-3.4-1.2-5-2.1c-1.6-0.9-3-2.2-4.2-3.8s-1.8-3.7-2-6.3
		c-0.1-2.4,0.2-4.7,1-6.8c0.8-2.1,2-4,3.7-5.5c1.6-1.6,3.7-2.9,6.2-3.8c2.5-1,5.3-1.5,8.5-1.7c2.8-0.1,5.5,0,8,0.5
		c2.5,0.5,4.7,1.4,6.6,2.6c1.9,1.3,3.4,3,4.5,5.1c1.1,2.1,1.7,4.8,1.8,8l-9.1,0.5c-0.2-3.4-1.3-5.8-3.2-7.2c-1.9-1.4-4.7-2-8.4-1.8
		c-0.7,0-1.6,0.2-2.7,0.4c-1.2,0.2-2.3,0.6-3.4,1.2c-1.1,0.6-2.1,1.5-2.9,2.5c-0.8,1.1-1.2,2.5-1.1,4.4c0.1,1.3,0.4,2.4,1.1,3.3
		c0.6,0.9,1.5,1.6,2.6,2.1c1.1,0.5,2.3,1,3.7,1.3c1.4,0.3,2.9,0.6,4.4,0.9c2,0.4,3.9,0.9,5.9,1.3c2,0.5,3.8,1.2,5.4,2.3
		c1.7,1,3,2.4,4.1,4.1c1.1,1.7,1.7,4,1.8,6.8c0.1,2.1-0.2,4.2-0.9,6.4c-0.7,2.1-1.9,4.1-3.6,5.8c-1.7,1.8-4,3.2-6.8,4.4
		c-2.8,1.2-6.3,1.9-10.4,2.1c-3.2,0.2-6.1-0.1-8.7-0.7c-2.6-0.6-4.9-1.6-6.7-3.1c-1.9-1.5-3.3-3.4-4.4-5.8c-1.1-2.4-1.6-5.3-1.7-8.7
		L301.1,485.4z"/>
	<path d="M366.3,445.8l10-0.5l12.2,53.7l-9.6,0.5l-2.9-14.2l-21.6,1.1l-7.6,14.8l-10.2,0.5L366.3,445.8z M370.1,455.2l-0.2,0
		l-11.9,23.7l16.5-0.8L370.1,455.2z"/>
	<path d="M401.8,444l10.4-0.5l18.7,39.6l0.2,0l6.2-40.9l9.5-0.5l-8.5,54.8l-10.4,0.5l-18.7-39.4l-0.1,0l-6.2,40.6l-9.5,0.5
		L401.8,444z"/>
	<path d="M451.4,441.5l44.6-2.3l-1.3,8.3l-17.2,0.9l-7.2,46.5l-9.5,0.5l7.2-46.5l-17.8,0.9L451.4,441.5z"/>
	<path d="M494.4,471.2c-0.3-5.7,0.3-10.6,1.8-14.9c1.5-4.3,3.5-7.8,6.2-10.7c2.6-2.8,5.6-5,9-6.5c3.4-1.5,6.9-2.3,10.4-2.5
		c3.5-0.2,6.8,0.2,9.8,1.3c3,1,5.6,2.5,7.7,4.5c2.2,2,3.9,4.4,5.2,7.2c1.3,2.8,2,6,2.2,9.5c0.3,5.7-0.3,10.7-1.7,14.9
		c-1.4,4.2-3.4,7.8-5.9,10.6c-2.5,2.8-5.5,5-8.9,6.5c-3.4,1.5-6.9,2.3-10.5,2.5c-3.9,0.2-7.4-0.2-10.4-1.3s-5.6-2.6-7.8-4.6
		c-2.1-2-3.8-4.5-5-7.3C495.3,477.6,494.6,474.5,494.4,471.2z M503.9,470.4c0.3,5.1,1.8,9,4.5,11.7c2.7,2.8,6.5,4,11.2,3.8
		c3.1-0.2,5.8-1,8.1-2.6c2.3-1.6,4.2-3.6,5.6-6.1c1.5-2.5,2.5-5.2,3.2-8.2c0.6-3,0.9-6.1,0.7-9.1c-0.3-5.1-1.7-9-4.3-11.7
		c-2.6-2.8-6.3-4-11-3.8c-3.2,0.2-6,1-8.4,2.6c-2.3,1.6-4.2,3.6-5.7,6.1c-1.5,2.5-2.5,5.2-3.2,8.2
		C504,464.3,503.7,467.4,503.9,470.4z"/>
	<path d="M560.1,472.4c0,4.2,1.2,7.1,3.6,8.7c2.4,1.6,5.5,2.3,9.5,2.1c1.3-0.1,2.6-0.3,4-0.7c1.4-0.4,2.7-0.9,3.8-1.7
		c1.1-0.7,2.1-1.7,2.8-2.8c0.7-1.2,1.1-2.5,1-4.1c-0.1-1.5-0.5-2.8-1.3-3.7c-0.8-1-1.8-1.8-3-2.4c-1.2-0.6-2.6-1.1-4.2-1.5
		c-1.6-0.4-3.2-0.8-4.9-1.2c-1.2-0.2-2.7-0.6-4.4-1.1s-3.4-1.2-5-2.1c-1.6-0.9-3-2.2-4.2-3.8c-1.2-1.6-1.8-3.7-2-6.3
		c-0.1-2.4,0.2-4.7,1-6.8c0.8-2.1,2-4,3.7-5.5c1.6-1.6,3.7-2.9,6.2-3.8c2.5-1,5.3-1.5,8.5-1.7c2.8-0.1,5.5,0,8,0.5
		c2.5,0.5,4.7,1.4,6.6,2.6c1.9,1.3,3.4,3,4.5,5.1c1.1,2.1,1.7,4.8,1.8,8l-9.1,0.5c-0.2-3.4-1.3-5.8-3.2-7.2c-1.9-1.4-4.7-2-8.4-1.8
		c-0.7,0-1.6,0.2-2.7,0.4c-1.2,0.2-2.3,0.6-3.4,1.2c-1.1,0.6-2.1,1.5-2.9,2.5c-0.8,1.1-1.2,2.5-1.1,4.4c0.1,1.3,0.4,2.4,1.1,3.3
		c0.6,0.9,1.5,1.6,2.6,2.1c1.1,0.5,2.3,1,3.7,1.3c1.4,0.3,2.9,0.6,4.4,0.9c2,0.4,3.9,0.9,5.9,1.3c2,0.5,3.8,1.2,5.4,2.3
		c1.7,1,3,2.4,4.1,4.1c1.1,1.7,1.7,4,1.8,6.8c0.1,2.1-0.2,4.2-0.9,6.4c-0.7,2.1-1.9,4.1-3.6,5.8c-1.7,1.8-4,3.2-6.8,4.4
		c-2.8,1.2-6.3,1.9-10.4,2.1c-3.2,0.2-6.1-0.1-8.7-0.7c-2.6-0.6-4.9-1.6-6.7-3.1c-1.9-1.5-3.3-3.4-4.4-5.8c-1.1-2.4-1.6-5.3-1.7-8.7
		L560.1,472.4z"/>
</g>
<g>
	<path class="st0" d="M212.8,605.7c0.4,1.4,1.3,2.5,2.8,3.3c0.7,0.4,1.4,0.6,2.2,0.7c0.7,0.1,1.4,0.2,2.1,0.2c2,0,3.7-0.4,5-1.2
		c1.3-0.8,2.4-1.9,3.2-3.1c0.8-1.2,1.5-2.6,1.9-4c0.4-1.5,0.8-2.8,1-4.1l-0.2-0.2c-2,1.7-4.1,3-6.4,3.7c-2.3,0.8-4.8,1.2-7.5,1.2
		c-3,0-5.8-0.4-8.4-1.3c-2.6-0.9-4.8-2.1-6.7-3.8c-1.9-1.7-3.3-3.7-4.4-6.1c-1-2.4-1.6-5.2-1.6-8.4c0-3.7,0.7-7,2.1-9.9
		c1.4-2.9,3.3-5.3,5.7-7.2c2.4-2,5.1-3.4,8.3-4.5c3.2-1,6.5-1.5,10-1.5c4.5,0,8.4,0.8,11.7,2.4c3.3,1.6,6,3.8,8.1,6.5
		c2.1,2.7,3.7,5.9,4.7,9.4c1,3.5,1.5,7.3,1.5,11.2c0,4.9-0.6,9.5-1.7,13.6c-1.2,4.1-2.9,7.7-5.3,10.7c-2.3,3-5.3,5.3-8.8,7
		c-3.5,1.7-7.7,2.5-12.4,2.5c-2.9,0-5.6-0.3-8.2-0.9c-2.6-0.6-5-1.6-7-3c-2.1-1.4-3.8-3.1-5.3-5.3c-1.4-2.2-2.4-4.8-2.8-7.8H212.8z
		 M221.3,573.4c-1.2,0-2.3,0.2-3.4,0.7s-2.1,1-2.9,1.8c-0.8,0.7-1.5,1.6-2,2.7c-0.5,1-0.8,2.2-0.8,3.4c0,1.2,0.2,2.3,0.8,3.3
		c0.5,1,1.2,1.9,2,2.7c0.8,0.7,1.7,1.3,2.8,1.7c1.1,0.4,2.2,0.6,3.4,0.6c1.2,0,2.3-0.2,3.4-0.6c1.1-0.4,2-0.9,2.8-1.7
		c0.8-0.7,1.4-1.6,1.9-2.6c0.5-1,0.7-2.1,0.7-3.4c0-2.5-0.8-4.5-2.5-6.2C225.9,574.3,223.8,573.4,221.3,573.4z"/>
	<path class="st0" d="M300.7,574.5c-3.8,3.5-6.9,7.3-9.3,11.3s-4.3,8.1-5.7,12.2c-1.4,4.1-2.4,8.2-2.9,12.3c-0.5,4.1-0.8,8-0.7,11.7
		h-19.7c-0.1,0,0-1.1,0.2-3.4c0.2-2.3,0.7-5.2,1.5-8.7c0.8-3.6,2.1-7.5,3.8-11.9c1.7-4.4,4.1-8.7,7.1-13.1c1.5-2.2,2.7-3.9,3.7-5.2
		c1-1.3,1.7-2.2,2.3-2.9c0.6-0.7,1.1-1.2,1.6-1.6h-29.6v-15.1h47.8V574.5z"/>
	<path class="st0" d="M302.1,604.4h0.9c4.9,0,8.8,3.9,8.8,8.8v0c0,4.9-3.9,8.8-8.8,8.8h-0.9c-4.9,0-8.8-3.9-8.8-8.8v0
		C293.3,608.3,297.2,604.4,302.1,604.4z"/>
	<path class="st0" d="M321.2,576.4c0-3.4,0.8-6.2,2.4-8.4c1.6-2.2,3.7-3.9,6.1-5.2c2.4-1.3,5.1-2.2,8-2.7c2.9-0.5,5.6-0.7,8.2-0.7
		c4.3,0,8,0.5,11.1,1.4c3.1,0.9,5.8,2.2,7.8,3.7c2.1,1.6,3.6,3.4,4.6,5.4c1,2,1.5,4.2,1.5,6.4c0,3.2-0.9,6-2.6,8.4
		c-1.7,2.4-4.1,3.9-7.1,4.6v0.2c1.7,0.2,3.3,0.6,4.8,1.3c1.5,0.7,2.8,1.7,3.9,2.8s2,2.6,2.6,4.2c0.6,1.6,0.9,3.4,0.9,5.2
		c0,3.7-0.8,6.8-2.5,9.3c-1.7,2.5-3.9,4.5-6.5,6c-2.7,1.5-5.6,2.6-8.9,3.3c-3.3,0.7-6.5,1-9.6,1c-3.3,0-6.6-0.3-9.9-0.9
		c-3.3-0.6-6.2-1.7-8.9-3.2c-2.6-1.5-4.7-3.5-6.3-6c-1.6-2.5-2.4-5.7-2.4-9.4c0-2.7,0.4-4.8,1.3-6.5c0.9-1.7,1.9-3,3.2-4
		c1.3-1,2.6-1.7,4.1-2.2c1.4-0.5,2.7-0.8,3.8-1v-0.2c-3.3-0.9-5.7-2.4-7.3-4.6C322,582.6,321.2,579.8,321.2,576.4z M336.1,603.1
		c0,1.4,0.3,2.5,0.9,3.3c0.6,0.9,1.4,1.6,2.4,2.1c0.9,0.5,2,0.9,3.2,1.1c1.2,0.2,2.3,0.3,3.4,0.3c1.1,0,2.2-0.1,3.4-0.3
		c1.2-0.2,2.3-0.6,3.2-1.1c1-0.5,1.8-1.2,2.4-2.1c0.6-0.9,0.9-2,0.9-3.3c0-1.5-0.3-2.7-0.8-3.8c-0.5-1-1.2-1.9-2.1-2.5
		c-0.9-0.6-1.9-1.1-3.1-1.3c-1.2-0.3-2.4-0.4-3.7-0.4c-1.3,0-2.6,0.1-3.8,0.4c-1.2,0.2-2.3,0.7-3.2,1.3c-0.9,0.6-1.7,1.5-2.2,2.5
		C336.4,600.2,336.1,601.5,336.1,603.1z M337.1,578.2c0,1.2,0.2,2.3,0.7,3.1c0.5,0.8,1.2,1.5,2.1,2c0.9,0.5,1.8,0.9,2.8,1.1
		c1,0.2,2.1,0.3,3.2,0.3c1.1,0,2.2-0.1,3.3-0.3c1.1-0.2,2.1-0.5,3-1c0.9-0.5,1.6-1.2,2.2-2c0.6-0.8,0.8-1.9,0.8-3.2
		c0-1.5-0.3-2.7-0.8-3.6c-0.5-0.9-1.2-1.6-2.1-2.1c-0.9-0.5-1.9-0.8-3-1c-1.1-0.2-2.2-0.3-3.4-0.3c-1.2,0-2.3,0.1-3.4,0.3
		c-1.1,0.2-2,0.6-2.8,1.1c-0.8,0.5-1.5,1.2-2,2.1C337.3,575.6,337.1,576.7,337.1,578.2z"/>
	<path class="st0" d="M390.5,558.5h49.1v16.3h-29.5v7.9h25.4v15.1h-25.4V622h-19.6V558.5z"/>
	<path class="st0" d="M446.5,558.5h27.8l9.1,37.4h0.2l9.1-37.4h27.8V622H502v-40.7h-0.2l-11,40.7h-14.6l-11-40.7H465V622h-18.5
		V558.5z"/>
</g>
</svg>
