<?xml version="1.0" encoding="utf-8"?>
<!-- Generator: Adobe Illustrator 16.0.0, SVG Export Plug-In . SVG Version: 6.00 Build 0)  -->
<!DOCTYPE svg PUBLIC "-//W3C//DTD SVG 1.1//EN" "http://www.w3.org/Graphics/SVG/1.1/DTD/svg11.dtd">
<svg version="1.1" id="Layer_1" xmlns="http://www.w3.org/2000/svg" xmlns:xlink="http://www.w3.org/1999/xlink" x="0px" y="0px"
	 width="140.672px" height="169.085px" viewBox="0 0 140.672 169.085" enable-background="new 0 0 140.672 169.085"
	 xml:space="preserve">
<g>
	<path fill="#ED6425" d="M139.479,36.183C129.789-13.068,61.298,2.254,61.298,2.254l-0.866,0.17c0,0-69.188,11.766-59.502,61.017
		C8.573,102.283,70.795,173.3,93.216,168.889l0.802-0.157C116.443,164.321,147.12,75.025,139.479,36.183z"/>
	<path fill="#FFFFFF" d="M91.995,26.399c4.623-1.342,3.784,7.403,3.591,11.773c-0.107,2.483,0.337,6.39-1.581,6.604
		c-2.194,0.25-2.103-4.684-2.583-7.324C90.73,33.67,88.822,27.32,91.995,26.399z"/>
	<path fill="#FFFFFF" d="M48.631,48.654c-0.686-3.761-3.368-7.342-3.733-10.912c-0.391-3.84,1.949-4.669,2.156-7.61
		c0.392-5.647-5.764-9.678-10.769-8.759c-2.378,0.433-3.483,2.185-3.736,4.881c-0.42,4.497,0.109,9.156-0.575,13.212
		c-0.568,3.385-2.016,10.435,1.005,11.054c2.888,0.593,3.674-2.438,4.021-4.596c0.331-2.047-0.258-6.667,2.011-6.744
		c2.218-0.082,3.576,5.055,4.165,6.458c0.818,1.957,2.269,6.773,4.309,6.462C48.671,51.917,48.87,49.962,48.631,48.654z
		 M39.442,32.287c-2.727,0.08-3.322-4.862-0.574-5.458C42.171,26.112,42.063,32.209,39.442,32.287z"/>
	<path fill="#FFFFFF" d="M82.091,26.542c-1.579-0.877-6.2-1.495-8.474-1.293c-4.136,0.368-3.341,4.848-3.016,8.47
		c0.198,2.216,0.82,6.071,0.573,8.474c-0.129,1.251-0.627,2.6-0.573,3.302c0.159,2.125,1.81,4.542,4.165,4.738
		c1.983,0.168,3.863-0.997,5.457-1.866c1.432-0.781,3.397-2.047,4.307-3.158C89.102,39.62,87.132,29.346,82.091,26.542z
		 M78.357,44.7c-3.008,0.36-2.752-2.901-2.924-6.511c-0.187-3.892-0.771-6.461,1.328-7.971c0.102-0.074,0.098-0.092,0.268-0.135
		c1.898-0.478,4.857,4.399,4.912,7.31C82.01,40.713,80.195,44.476,78.357,44.7z"/>
	<path fill="#FFFFFF" d="M115.833,32.715c-0.546-5.107-4.522-9.964-9.479-9.189c-1.371,0.214-2.274,0.613-3.014,1.292
		c-4.115,3.777-3.504,19.022,1.004,21.536c3.456,1.929,7.874-0.124,9.479-2.439C115.723,41.176,116.221,36.323,115.833,32.715z
		 M108.077,40.47c-2.425-0.194-2.647-8.376-0.283-9.049C111.281,30.43,112.087,40.791,108.077,40.47z"/>
	<path fill="#FFFFFF" d="M29.103,81.248c-1.968-1.739-2.509-4.236-3.876-6.75c-0.925-1.693-2.521-6.05-4.737-5.741
		c-1.42,0.197-1.403,2.986-1.578,4.45c-0.251,2.074-1.228,5.338-3.88,3.734c-1.476-0.889-1.059-4.389-0.718-7.61
		c0.533-5.034-1.428-11.462,2.587-12.062c2.856-0.428,4.187,1.934,5.313,3.735c0.757,1.215,1.749,2.615,2.583,3.877
		c1.351,2.043,3.658,6.86,6.03,6.748c1.88-0.09,2.941-3.153,3.59-4.737c0.911-2.222,1.525-4.147,2.585-5.6
		c0.895-1.229,2.542-2.925,4.741-2.442c3.074,0.669,2.561,7.007,3.012,10.338c0.386,2.845,1.9,10.391-1.435,10.48
		c-3.613,0.101-1.44-7.535-4.451-7.896c-1.853-0.22-2.929,2.529-3.734,4.309C33.801,79.027,33.363,81.69,29.103,81.248z"/>
	<path fill="#FFFFFF" d="M129.471,69.189c-0.676-3.276,1.151-4.821,0.719-7.896c-0.528-3.781-5.799-6.467-9.903-5.889
		c-0.983,0.14-2.832,0.479-3.737,1.579c-1.136,1.393-0.809,4.546-0.717,6.606c0.184,4.173-0.279,13.476,2.584,13.499
		c2.975,0.019,1.465-5.995,4.738-6.033c1.74-0.017,2.455,1.728,3.303,2.874c0.695,0.941,2.041,3.011,3.877,2.439
		C132.879,75.58,130.014,71.79,129.471,69.189z M122.152,64.45c-2.825-0.434-2.053-5.007,0.574-5.457
		C126.585,58.336,126.016,65.038,122.152,64.45z"/>
	<path fill="#FFFFFF" d="M84.818,54.972c-1.782,0.204-4.243,1.385-5.17,3.304c-1.018,2.098-0.381,5.388-0.285,8.039
		c0.129,3.727-0.022,14.449,3.443,14.217c3.352-0.227,0.252-7.719,5.457-6.75c1.969,0.368,2.041,2.681,4.164,2.873
		c0.305-1.68-0.451-2.54-0.572-3.735c-0.375-3.653,1.879-5.685,2.15-9.045C94.414,58.896,89.639,54.417,84.818,54.972z
		 M85.104,66.174c-2.736-0.34-2.901-6.154,0-6.605C88.73,59.003,88.98,66.651,85.104,66.174z"/>
	<path fill="#FFFFFF" d="M51.934,61.292c3.368-1.263,3.884,2.996,4.163,6.891c0.261,3.573,0.953,6.571,0.577,9.188
		c-0.236,1.652-1.326,3.035-2.729,2.873c-2.337-0.264-2.114-4.499-2.442-7.61C51.078,68.584,49.814,63.309,51.934,61.292z"/>
	<path fill="#FFFFFF" d="M72.898,70.479c0.019-2.579,1.504-4.809,1.149-7.178c-0.601-3.975-4.277-5.902-8.33-5.887
		c-6.65,0.021-4.667,5.201-4.308,10.913c0.173,2.711,0.609,5.454,0.719,7.464c0.143,2.574-0.066,5.456,1.867,5.456
		c3.27,0,0.283-7.007,3.59-7.32c3.816-0.364,2.811,6.053,6.607,5.886C75.818,76.793,72.874,73.887,72.898,70.479z M67.586,66.315
		c-2.305,0.082-2.66-3.876-0.286-4.308C70.08,61.504,69.97,66.231,67.586,66.315z"/>
	<path fill="#FFFFFF" d="M108.65,57.556c-1.203-1.104-3.81-2.208-6.029-1.866c-3.535,0.545-4.639,3.54-4.881,7.182
		c-0.313,4.678,0.082,11.78,2.441,13.925c3.428,3.121,8.446-0.237,10.482-2.727C114.475,69.407,112.068,60.693,108.65,57.556z
		 M104.919,73.206c-4.08,0.461-3.825-9.594-0.717-10.193C107.152,62.445,108.236,72.834,104.919,73.206z"/>
	<path fill="#FFFFFF" d="M113.68,111.403c-2.918,0.479-4.08-1.226-5.742-2.582c-1.371-1.12-3.557-3.516-5.315-3.303
		c-2.765,0.33-0.974,6.142-4.021,6.462c-4.183,0.432-3.496-7.881-3.592-12.637c-0.07-3.735-1.645-10.135,1.438-10.77
		c3.049-0.635,2.605,3.359,4.884,3.59c2.237,0.225,3.785-3.236,6.172-3.59c4.556-0.681,3.69,3.856,1.724,6.029
		c-1.238,1.365-3.367,2.37-3.443,4.311c-0.107,2.688,3.354,4.338,5.168,5.885C112.882,106.445,115.7,108.042,113.68,111.403z"/>
	<path fill="#FFFFFF" d="M77.928,87.281c-2.644,0.387-4.861,1.932-5.029,5.454c-0.144,3.05,0.621,6.293,1.009,10.916
		c0.36,4.378-0.316,11.122,4.163,10.626c2.803-0.313,1.918-5.063,4.021-5.314c2.652-0.317,2.879,4.174,5.742,3.59
		c2.969-0.602-0.447-6.379-0.434-7.752c0.031-2.441,1.899-4.682,2.156-7.18C90.249,90.845,84.947,86.251,77.928,87.281z
		 M81.661,99.343c-2.726-0.117-3.529-8.317-0.435-8.902C85.084,89.708,86.296,99.537,81.661,99.343z"/>
	<path fill="#FFFFFF" d="M66.723,39.607c-0.634-1.597-1.33-3.183-2.154-4.882c-1.347-2.78-2.699-7.364-5.313-8.614
		c-6.426-3.081-5.534,6.193-6.03,11.484c-0.25,2.672-1.253,9.487,1.004,9.622c1.074,0.065,1.838-1.681,2.586-2.442
		c0.758-0.767,1.992-1.859,3.302-1.864c3.278-0.015,5,5.941,8.188,2.009C68.378,42.797,67.362,41.208,66.723,39.607z M58.811,40.315
		c-2.238-0.096-2.894-6.824-0.356-7.305C61.62,32.411,62.614,40.474,58.811,40.315z"/>
	<path fill="#FFFFFF" d="M68.449,106.38c-2.163-4.299-4.249-7.909-6.319-12.348c-1.351-2.906-2.472-6.597-6.032-6.177
		c-3.29,0.386-3.505,5.422-4.163,9.19c-0.651,3.732-1.239,6.725-1.435,9.619c-0.205,3.045,0.373,6.033,2.298,6.033
		c1.645,0,2.14-2.225,2.871-3.592c0.778-1.453,1.835-2.699,3.733-2.729c5.386-0.082,4.022,7.98,10.195,7.033
		C70.968,111.016,69.414,108.3,68.449,106.38z M57.841,102.667c-2.235-0.097-2.893-6.826-0.356-7.306
		C60.65,94.761,61.645,102.826,57.841,102.667z"/>
	<path fill="#FFFFFF" d="M37.287,87.71c-1.882,0.15-4.016,0.822-5.023,2.01c-2.304,2.726-0.754,9.322-0.144,14.359
		c0.412,3.391,0.688,9.361,3.733,8.903c2.039-0.308,1.441-3.491,2.154-5.457c0.83-2.303,3.503-2.899,5.454-4.595
		c1.57-1.362,3.325-4.436,3.162-7.609C46.4,91.031,41.885,87.343,37.287,87.71z M38.791,99.248
		c-2.138-0.281-2.871-4.856-0.589-5.662C41.936,92.264,42.665,99.751,38.791,99.248z"/>
</g>
</svg>
