<?xml version="1.0" encoding="utf-8"?>
<!-- Generator: Adobe Illustrator 16.0.0, SVG Export Plug-In . SVG Version: 6.00 Build 0)  -->
<!DOCTYPE svg PUBLIC "-//W3C//DTD SVG 1.1//EN" "http://www.w3.org/Graphics/SVG/1.1/DTD/svg11.dtd">
<svg version="1.1" id="Layer_1" xmlns="http://www.w3.org/2000/svg" xmlns:xlink="http://www.w3.org/1999/xlink" x="0px" y="0px"
	 width="160px" height="160px" viewBox="0 0 160 160" enable-background="new 0 0 160 160" xml:space="preserve">
<g>
	<g>
		<path fill="#231F20" d="M80.219,69.663l-42.297,69.705H26.383C40.57,152.188,59.372,160,80,160
			c20.639,0,39.449-7.818,53.639-20.65h-14.107L80.219,69.663z"/>
		<path fill="#231F20" d="M80.402,28.455l51.302,90.75h17.933v0.161C156.223,107.74,160,94.314,160,80c0-44.183-35.816-80-80-80
			C35.817,0,0,35.817,0,80c0,14.402,3.825,27.904,10.487,39.578h15.901L80.402,28.455z"/>
		<path fill="#FE3E75" d="M30.502,125.904l49.903-83.87l47.187,83.336h18.289c1.34-1.94,2.588-3.945,3.754-6.005v-0.161h-17.932
			l-51.302-90.75l-54.014,91.124h-15.9c1.241,2.175,2.579,4.285,4.011,6.326H30.502z"/>
		<path fill="#3FEDFF" d="M140.404,132.421h-16.922L80.253,56.076l-45.742,76.878H20.058c1.991,2.251,4.095,4.397,6.325,6.413
			h11.539l42.297-69.705l39.312,69.686h14.107C136.035,137.182,138.285,134.859,140.404,132.421z"/>
		<path fill="#F5FF1F" d="M80.257,42.526l-49.852,84.103H15.014c1.413,1.965,2.912,3.862,4.493,5.688h14.447l46.486-76.61
			l43.208,76.592h16.86c1.675-1.937,3.257-3.952,4.742-6.043H127.59L80.257,42.526z"/>
		<path fill="#FFFFFF" d="M80.405,42.034l-49.903,83.87H14.498c0.171,0.242,0.343,0.484,0.516,0.725h15.392l49.852-84.103
			l47.333,83.729h17.662c0.209-0.295,0.425-0.587,0.629-0.885h-18.288L80.405,42.034z"/>
		<path fill="#FFFFFF" d="M80.44,55.706l-46.487,76.61H19.506c0.184,0.213,0.366,0.428,0.552,0.638h14.453l45.742-76.878
			l43.229,76.345h16.922c0.035-0.041,0.07-0.082,0.105-0.123h-16.861L80.44,55.706z"/>
	</g>
	<path fill="#FE3E75" d="M28.656,59.619c-1.229-1.385-3.899-2.472-8.011-3.264c-1.667-0.311-2.5-0.996-2.5-2.056
		c0-1.003,0.763-1.504,2.289-1.504c1.639,0,3.765,0.593,6.379,1.778l2.521-6.611c-2.967-1.468-5.813-2.204-8.54-2.204
		c-3.829,0-6.863,0.929-9.102,2.788c-2.24,1.857-3.359,4.339-3.359,7.447c0,2.063,0.696,3.742,2.087,5.033
		c1.391,1.293,3.648,2.236,6.771,2.829c1.681,0.325,2.772,0.615,3.274,0.869c0.501,0.255,0.752,0.657,0.752,1.208
		c0,0.65-0.3,1.178-0.9,1.579c-0.601,0.403-1.402,0.604-2.406,0.604c-1.257,0-2.464-0.25-3.623-0.752
		c-1.159-0.501-2.606-1.479-4.344-2.936l-2.226,7.1c3.375,2.642,6.979,3.962,10.808,3.962c3.489,0,6.356-0.984,8.603-2.957
		c2.247-1.97,3.369-4.473,3.369-7.511C30.5,62.805,29.885,61.003,28.656,59.619z"/>
	<path fill="#FE3E75" d="M43.438,65.934h4.917c3.885,0,6.598-0.911,8.137-2.733c1.541-1.824,2.31-4.154,2.31-6.995
		c0-3.092-0.844-5.491-2.532-7.194c-1.688-1.701-4.065-2.553-7.131-2.553H33.733v28.333h9.705V65.934z M43.438,53.261h2.014
		c1.032,0,1.835,0.265,2.416,0.794c0.579,0.53,0.87,1.268,0.87,2.216c0,1.935-1.145,2.901-3.434,2.901h-1.865L43.438,53.261
		L43.438,53.261z"/>
	<path fill="#FE3E75" d="M118.586,75.394c2.29,0,4.594-0.521,6.911-1.568v-9.197c-2.05,0.862-3.702,1.294-4.958,1.294
		c-1.979,0-3.51-0.488-4.59-1.464c-1.08-0.974-1.62-2.352-1.62-4.132c0-1.78,0.536-3.164,1.61-4.152
		c1.072-0.99,2.578-1.485,4.513-1.485c1.469,0,3.151,0.431,5.044,1.293v-8.984c-2.316-0.918-4.467-1.377-6.443-1.377
		c-4.337,0-7.888,1.394-10.648,4.184c-2.762,2.791-4.145,6.37-4.145,10.735c0,4.337,1.346,7.896,4.039,10.68
		C110.991,74.003,114.42,75.394,118.586,75.394z"/>
	<polygon fill="#FE3E75" points="148.342,67.702 139.229,67.702 139.229,64.015 147.346,64.015 147.346,57.021 139.229,57.021 
		139.229,53.335 148.342,53.335 148.342,46.362 129.525,46.362 129.525,74.694 148.342,74.694 	"/>
	<g>
		<g>
			<path fill="#FFFFFF" d="M60.954,127.835l0.278-0.417c-0.495,0.299-0.984,0.566-1.469,0.805c-0.969,0.494-1.654,0.741-2.056,0.741
				c-0.64,0-0.959-0.407-0.959-1.222c0-0.557,0.289-0.938,0.866-1.145c1.021-0.361,2.02-0.809,3-1.345l2.087-1.175
				c0.33-0.176,0.624-0.264,0.881-0.264c0.402,0,0.742,0.237,1.021,0.711c0.288,0.443,0.433,0.846,0.433,1.207
				c0,0.318-0.083,0.629-0.247,0.928c-0.382,0.711-0.876,1.521-1.484,2.427c-0.547,0.813-1.093,1.716-1.639,2.706
				c-0.598,1.063-1.16,2.118-1.686,3.169c-0.505,1.031-0.907,1.912-1.206,2.644c-0.269,0.711-0.479,1.166-0.634,1.361
				c-0.165,0.227-0.397,0.34-0.696,0.34c-0.412,0-0.757-0.154-1.036-0.464c-0.289-0.288-0.433-0.644-0.433-1.067
				c0-0.442,0.129-1,0.387-1.668c0.299-0.752,0.742-1.696,1.33-2.83c0.587-1.084,1.177-2.113,1.771-3.094
				C60.054,129.207,60.552,128.423,60.954,127.835z"/>
			<path fill="#FFFFFF" d="M72.245,124.372c1.443,0.546,2.165,1.758,2.165,3.634c0,0.805-0.114,1.639-0.34,2.504
				c-0.216,0.835-0.562,1.748-1.036,2.737c-0.443,0.907-0.969,1.784-1.577,2.629c-1.783,2.401-3.556,3.603-5.319,3.603
				c-0.67,0-1.278-0.17-1.824-0.51c-0.547-0.318-0.979-0.789-1.299-1.406c-0.31-0.608-0.464-1.283-0.464-2.025
				c0-1.041,0.216-2.17,0.649-3.387c0.412-1.185,1.021-2.37,1.824-3.556c0.402-0.598,0.82-1.144,1.252-1.639
				c0.433-0.495,0.928-0.995,1.484-1.5c0.639-0.599,1.314-1.113,2.025-1.546c0.66-0.412,1.165-0.619,1.516-0.619
				C71.797,123.29,72.111,123.65,72.245,124.372z M70.359,126.784h-0.294c-0.876,0.763-1.644,1.603-2.304,2.521
				c-0.701,0.969-1.237,1.916-1.608,2.844c-0.402,0.959-0.603,1.81-0.603,2.552c0,0.577,0.103,1.03,0.309,1.36
				s0.484,0.496,0.835,0.496c0.763,0,1.66-0.728,2.69-2.181c0.495-0.701,0.902-1.392,1.222-2.072
				c0.36-0.772,0.639-1.495,0.835-2.165c0.186-0.701,0.278-1.299,0.278-1.793c0-0.464-0.124-0.84-0.371-1.128
				S70.771,126.784,70.359,126.784z"/>
			<path fill="#FFFFFF" d="M81.434,130.277c0.814,0.527,1.223,1.346,1.223,2.459c0,1.145-0.33,2.263-0.99,3.354
				c-0.318,0.536-0.701,1.036-1.145,1.5c-0.442,0.464-0.912,0.866-1.406,1.206c-1.041,0.701-2.087,1.053-3.139,1.053
				c-1.031,0-1.907-0.33-2.628-0.99c-0.742-0.649-1.113-1.418-1.113-2.305c0-0.598,0.17-1.113,0.51-1.546
				c0.34-0.433,0.752-0.649,1.237-0.649c0.319,0,0.598,0.104,0.835,0.311c0.227,0.196,0.34,0.448,0.34,0.757
				c0,0.155-0.005,0.259-0.016,0.31c-0.021,0.31-0.031,0.449-0.031,0.418c0,0.318,0.098,0.582,0.294,0.787
				c0.206,0.218,0.443,0.326,0.711,0.326c0.381,0,0.825-0.207,1.33-0.619c0.515-0.401,0.963-0.912,1.345-1.53
				c0.546-0.855,0.82-1.608,0.82-2.257c0-0.361-0.093-0.649-0.278-0.866c-0.196-0.216-0.464-0.325-0.804-0.325H78.42
				c-0.031,0.012-0.087,0.016-0.17,0.016c-0.031,0-0.069,0.002-0.116,0.008c-0.047,0.007-0.085,0.014-0.116,0.023
				c-0.052,0.012-0.149,0.016-0.294,0.016c-0.278,0-0.5-0.098-0.665-0.293c-0.186-0.187-0.278-0.422-0.278-0.711
				c0-0.361,0.118-0.66,0.355-0.897c0.217-0.216,0.593-0.422,1.129-0.619c1.041-0.351,1.773-0.675,2.195-0.974
				c0.412-0.289,0.619-0.619,0.619-0.99c0-0.227-0.083-0.407-0.248-0.541c-0.165-0.135-0.376-0.201-0.634-0.201
				c-0.381,0-0.763,0.098-1.144,0.294l-1.222,0.634c-0.216,0.104-0.423,0.155-0.618,0.155c-0.289,0-0.516-0.098-0.681-0.294
				c-0.186-0.186-0.278-0.417-0.278-0.695c0-0.443,0.242-0.893,0.727-1.346c0.464-0.434,1.092-0.799,1.886-1.098
				c0.773-0.278,1.566-0.418,2.381-0.418c0.588,0,1.107,0.119,1.563,0.355c0.442,0.227,0.797,0.557,1.066,0.99
				c0.247,0.434,0.371,0.917,0.371,1.453C84.249,128.011,83.311,129.258,81.434,130.277z"/>
			<path fill="#FFFFFF" d="M83.139,138.938c0-0.67,0.221-1.263,0.666-1.778c0.453-0.526,0.947-0.789,1.483-0.789
				c0.351,0,0.64,0.124,0.866,0.371c0.216,0.247,0.324,0.567,0.324,0.958c0,0.67-0.222,1.273-0.664,1.809
				c-0.443,0.557-0.934,0.835-1.469,0.835c-0.361,0-0.65-0.134-0.867-0.401C83.252,139.686,83.139,139.35,83.139,138.938z"/>
			<path fill="#FFFFFF" d="M94.895,136.063c0.608-0.094,1.176-0.14,1.701-0.14c1.723,0,2.584,0.531,2.584,1.593
				c0,0.351-0.115,0.67-0.341,0.957c-0.237,0.299-0.495,0.449-0.772,0.449c-0.053,0-0.166-0.025-0.34-0.078
				c-0.711-0.236-1.264-0.354-1.654-0.354c-1.206,0-2.871,0.36-4.994,1.083c-0.268,0.093-0.475,0.139-0.619,0.139
				c-0.318,0-0.624-0.191-0.912-0.572c-0.248-0.33-0.371-0.623-0.371-0.881c0-0.422,0.346-0.964,1.036-1.624
				c0.3-0.278,0.794-0.721,1.483-1.33c0.402-0.351,1.058-0.892,1.965-1.624c0.711-0.566,1.211-0.964,1.5-1.189
				c0.845-0.66,1.613-1.258,2.304-1.795c0.866-0.689,1.494-1.272,1.886-1.746c0.34-0.422,0.51-0.83,0.51-1.221
				c0-0.3-0.076-0.517-0.231-0.649c-0.165-0.146-0.376-0.218-0.634-0.218c-0.311,0-0.619,0.072-0.928,0.218
				c-0.278,0.134-0.696,0.407-1.252,0.819c-0.785,0.617-1.33,0.928-1.64,0.928c-0.237,0-0.448-0.104-0.634-0.311
				c-0.186-0.205-0.277-0.447-0.277-0.727c0-0.393,0.17-0.805,0.51-1.237c0.309-0.411,0.763-0.819,1.359-1.222
				c0.567-0.371,1.18-0.665,1.84-0.881c0.649-0.206,1.268-0.309,1.855-0.309c0.607,0,1.169,0.133,1.686,0.401
				c0.494,0.248,0.891,0.614,1.19,1.099c0.278,0.463,0.417,0.983,0.417,1.562c0,0.577-0.129,1.159-0.387,1.747
				c-0.258,0.598-0.629,1.154-1.113,1.67c-0.34,0.371-0.84,0.84-1.5,1.406c-0.607,0.496-1.525,1.197-2.752,2.104
				C96.389,134.859,95.564,135.505,94.895,136.063z"/>
		</g>
	</g>
</g>
</svg>
