<?xml version="1.0" encoding="utf-8"?>
<!-- Generator: Adobe Illustrator 16.0.0, SVG Export Plug-In . SVG Version: 6.00 Build 0)  -->
<!DOCTYPE svg PUBLIC "-//W3C//DTD SVG 1.1//EN" "http://www.w3.org/Graphics/SVG/1.1/DTD/svg11.dtd">
<svg version="1.1" id="Layer_1" xmlns="http://www.w3.org/2000/svg" xmlns:xlink="http://www.w3.org/1999/xlink" x="0px" y="0px"
	 width="172.16px" height="171.707px" viewBox="0 0 172.16 171.707" enable-background="new 0 0 172.16 171.707"
	 xml:space="preserve">
<g>
	<g>
		<g>
			<g>
				<g>
					<path fill="#553C2A" d="M94.145,169.663c-0.154,0-0.302-0.002-0.445-0.009c-0.998-0.043-2.297-0.084-3.79-0.133l-0.13-0.004
						c-8.318-0.271-16.709-0.604-19.937-1.451c-3.454-0.91-11.091-3.262-14.761-4.393c0,0-2.346-0.719-2.724-0.832
						c-2.229-0.669-7.037-2.726-8.849-4.086c-0.771-0.576-8.549-6.52-12.036-9.309c-3.541-2.833-16.989-20.092-18.842-22.932
						c-3.799-5.808-9.546-23.255-10.445-33.83c-0.728-8.566,1.5-24.524,3.632-29.741c4.303-10.52,10.081-23.628,13.169-26.337
						c1.25-1.094,3.115-3.095,5.275-5.413c4.323-4.639,9.223-9.897,12.662-11.844c1.004-0.568,2.464-1.421,4.195-2.437
						c7.656-4.478,19.229-11.248,22.778-11.86c6.179-1.375,14.037-2.957,16.164-2.957c0.569,0,1.305-0.009,2.132-0.019l0.357-0.004
						c1.24-0.016,2.644-0.032,3.978-0.032c2.96,0,4.634,0.093,5.117,0.284l0.084,0.034l0.086,0.025
						c0.461,0.137,1.451,0.28,4.188,0.638c2.844,0.369,6.318,0.819,7.898,1.345c0.957,0.319,2.647,0.786,4.438,1.281l0.229,0.063
						c3.463,0.954,7.041,1.94,8.047,2.515c0.283,0.16,0.932,0.467,2.377,1.141c5.318,2.477,16.386,7.629,20.781,12.027l0.746,0.745
						c5.451,5.441,18.213,18.181,20.823,25.138c0.239,0.64,1.069,2.822,1.069,2.822c2.746,7.192,6.504,17.039,7.104,24.423
						c1.018,12.553,1.254,29.556-3.404,39.276c-4.938,10.303-10.996,21.879-13.398,24.521c-2.109,2.322-15.848,15.416-19.07,17.029
						c-0.815,0.408-2.375,1.233-4.183,2.19c-4.856,2.581-12.979,6.897-15.345,7.571c-0.319,0.093-1.662,0.49-1.662,0.49
						C108.384,166.818,98.859,169.663,94.145,169.663z"/>
				</g>
				<path fill="#F89B06" d="M86.529,4.087c3.237,0,4.173,0.115,4.421,0.163l0.11,0.043l0.174,0.052
					c0.572,0.17,1.371,0.295,4.502,0.705l0.052,0.007h0.002c2.563,0.333,6.071,0.788,7.463,1.25
					c1.011,0.336,2.646,0.789,4.542,1.313l0.23,0.064c2.683,0.739,6.736,1.856,7.593,2.33c0.312,0.175,0.803,0.412,2.51,1.208
					c4.806,2.237,16.058,7.477,20.2,11.62l0.747,0.747c5.356,5.346,17.897,17.866,20.353,24.405c0.241,0.644,0.5,1.324,0.77,2.032
					l0.307,0.808c2.7,7.074,6.398,16.763,6.975,23.856c1.41,17.388,0.271,30.965-3.211,38.228
					c-5.672,11.835-11.166,21.941-13.068,24.031c-2.151,2.367-15.648,15.162-18.471,16.576c-0.853,0.426-2.414,1.252-4.229,2.214
					c-4.468,2.375-12.785,6.795-14.949,7.411c-0.321,0.093-0.733,0.215-1.22,0.359l-0.463,0.137
					c-3.98,1.188-13.305,3.973-17.723,3.973c-0.119,0-0.233-0.001-0.373-0.008c-0.986-0.043-2.289-0.084-3.787-0.133l-0.139-0.004
					c-6.063-0.197-16.211-0.526-19.481-1.385c-3.415-0.898-11.025-3.242-14.688-4.371l-0.942-0.289
					c-0.792-0.242-1.413-0.434-1.785-0.544c-2.327-0.698-6.728-2.647-8.219-3.768c-0.766-0.573-8.51-6.489-11.98-9.267
					c-3.121-2.498-16.485-19.508-18.41-22.455c-3.674-5.619-9.241-22.573-10.118-32.883C3.515,84.191,5.655,68.745,7.71,63.72
					c8.349-20.411,11.61-24.685,12.623-25.574c1.328-1.162,3.227-3.199,5.425-5.557c4.014-4.307,9.008-9.667,12.172-11.458
					c0.988-0.559,2.403-1.385,4.219-2.45c6.609-3.866,18.912-11.062,22.097-11.612l0.097-0.017l0.096-0.021
					c7.634-1.701,14.058-2.889,15.623-2.889c0.579,0,1.328-0.009,2.169-0.019l0.348-0.004C83.809,4.103,85.204,4.087,86.529,4.087
					 M86.529,0c-1.343,0-2.756,0.017-4.002,0.032c-0.963,0.011-1.822,0.022-2.466,0.022c-3.051,0-14.898,2.627-16.511,2.987
					c-3.625,0.626-13.167,6.088-23.465,12.112c-1.719,1.009-3.169,1.856-4.167,2.42c-3.708,2.099-8.725,7.479-13.15,12.229
					c-2.125,2.28-3.961,4.249-5.126,5.268c-1.012,0.888-4.094,3.583-13.714,27.102C1.668,67.697-0.613,83.88,0.15,92.859
					c0.947,11.136,6.812,28.722,10.771,34.773c1.928,2.953,15.527,20.408,19.276,23.409c3.494,2.796,11.266,8.733,12.086,9.349
					c2.084,1.563,7.094,3.689,9.493,4.409c0.516,0.153,1.477,0.45,2.705,0.826c4.291,1.321,11.474,3.526,14.844,4.415
					c3.419,0.896,11.596,1.23,20.39,1.518c1.539,0.049,2.877,0.092,3.883,0.135c0.178,0.01,0.357,0.013,0.549,0.013
					c5.004,0,14.383-2.797,18.891-4.144c0.676-0.199,1.234-0.367,1.643-0.483c2.359-0.673,8.793-4.039,15.739-7.731
					c1.789-0.947,3.333-1.765,4.142-2.169c3.703-1.854,17.813-15.44,19.666-17.481c2.721-2.989,9.096-15.342,13.729-25.014
					c4.854-10.132,4.637-27.52,3.599-40.325c-0.623-7.671-4.441-17.68-7.229-24.983c-0.378-0.993-0.738-1.937-1.066-2.814
					c-2.765-7.366-15.278-19.862-21.293-25.866l-0.745-0.745c-4.646-4.649-15.938-9.908-21.363-12.434
					c-1.024-0.478-1.991-0.93-2.226-1.062c-1.146-0.656-3.983-1.462-8.517-2.711c-1.86-0.514-3.618-0.998-4.565-1.313
					c-1.751-0.582-5.192-1.032-8.229-1.426c-1.574-0.206-3.53-0.461-3.918-0.577C91.833,0.204,90.956,0,86.529,0L86.529,0z"/>
			</g>
		</g>
		<g>
			<path fill="#FFFFFF" d="M136.34,77.26c-1.529,0.121-2.814,0.582-4.388,0.638c-0.535-2.623-0.113-5.572-0.218-8.344
				c-0.045-1.206-0.244-2.667-0.19-4.059c0.054-1.336,0.302-2.6,0.278-3.854c-0.053-2.973-0.396-5.99-0.623-8.917
				c-1.364-0.35-0.932,0.096-2.313-0.503c-0.019-1.527-0.354-3.404-0.063-4.792c1.126-1.125,3.474-0.398,5.414-0.732
				c0.477-0.081,0.813,0.257,1.162,0.575c0.304,6.302,0.711,12.761,0.607,19.36c-0.027,1.795,0.061,3.63,0.084,5.427
				C136.113,73.798,136.248,75.538,136.34,77.26z"/>
			<g>
				<path fill="#FFFFFF" d="M127.096,66.499c-0.025-2.208,0.19-4.639-0.121-6.692c-0.707-4.669-0.565-8.227-2.553-11.635
					c-0.529-0.913-1.484-2.097-2.275-2.15c-2.24-0.149-4.683,0.647-6.172,2.265c-1.441,2.033-1.604,5.163-1.715,7.847
					c-0.05,1.102-0.138,2.497-0.031,3.142c0.115,0.703,0.556,1.922,0.928,2.677c1.173,2.355,4.14,3.058,7.414,2.8
					c0.675,1.691,0.582,5.417,0.57,7.242c-0.008,0.83,0.18,1.788-0.131,2.244c-0.646,0.947-2.52,0.49-3.039-0.645
					c-0.361-0.941-0.525-2.33-0.475-3.854c0.031-0.998,0.057-2.012,0.009-3.019c-0.983,0.086-3.058-0.199-3.833,0.145
					c-0.128,0.388-0.318,0.978-0.313,1.291c0.033,1.5,0.14,2.638,0.334,3.958c0.269,1.837,0.619,4.346,1.736,5.33
					c2.502,2.205,7.301,2.066,8.916-0.623c0.437-0.726,0.77-2.381,0.93-3.995C127.454,71.087,127.12,68.766,127.096,66.499z
					 M122.828,61.305c-0.534,0.495-1.665,1.117-3.02,0.515c-0.863-0.383-1.227-1.704-1.459-3.102
					c-0.234-1.407-0.442-3.008-0.434-4.856c0.01-1.696,0.484-3.379,1.118-3.764c0.633-0.386,1.336-0.733,2.026-0.604
					c0.515,0.098,0.766,0.768,1.076,0.907c0.262,0.568,0.518,0.776,0.689,1.595C123,52.813,123.359,60.808,122.828,61.305z"/>
			</g>
			<path fill="#FFFFFF" d="M142.542,72.556c0.196,1.259,0.649,2.335,0.19,4.06c-0.961,0.519-2.111,0.768-3.715,0.376
				c-0.385-1.269-0.363-2.826-0.395-4.346C139.854,72.198,140.902,72.426,142.542,72.556z"/>
			<path fill="#FFFFFF" d="M150.145,76.732c-1.691-0.06-2.861,0.617-4.816,0.186c-0.455-7.612,1.191-16.937-0.08-24.682
				c-0.992-0.186-0.938,0.136-1.842,0.074c-0.059-1.613-0.567-3.464-0.288-4.959c2.052-0.292,3.694-0.189,6.003-0.12
				c0.438,3.358,0.146,6.664,0.068,9.953c-0.025,1.057,0.082,2.124,0.092,3.164c0.027,2.917,0.131,5.523,0.5,8.141
				C150.116,70.849,150.092,73.974,150.145,76.732z"/>
		</g>
		<g>
			<path fill="#F89B06" d="M84.876,21.02c-0.229,1.06,0.083,2.71,0.01,4.105c-0.125,2.375,0.025,4.811,0.212,7.208
				c0.084,1.092,0.015,2.255,0.058,3.324c0.053,1.284-0.002,2.378,0,3.553c0.001,0.943,0.046,2.216,0.057,3.152
				c0.038,3.183,0.167,6.036,0.225,9.131c4.365,0.374,9.365,0.174,12.557-0.134c-0.054-0.693-0.177-4.144-0.229-4.872
				c-2.929-0.257-5.418-0.004-8.141,0.063c-0.275-2.407,0.066-4.476-0.003-6.874c1.741-0.256,5.304,0.106,7.228-0.181
				c0.264-1.095,0.262-3.562,0.057-4.413c-2.178-0.344-4.814,0.114-7.09-0.229c-0.151-3.399-0.115-6.468-0.041-8.901
				c2.785,0.157,5.562,0.3,8.043,0.028c0.021-2.047,0.091-3.655-0.338-5.135c-0.162-0.028-5.853-0.201-8.502-0.057"/>
			<path fill="#F89B06" d="M99.041,51.317c1.613-0.012,3.113-0.186,4.863-0.011c0.301,1.018-3.295,19.303-4.65,28.882
				c-0.462,3.255-1.245,5.965-2.443,9.345c-1.979,0.105-3.758,0.232-5.942,0.044c-0.821-4.29-1.22-10.318-1.507-14.984
				c-1.424,3.876-2.461,10.367-4.263,15.847c-2.021-0.356-3.938-0.157-5.9-0.433c-0.572-4.217-0.396-7.817-0.979-11.887
				c-0.807-5.616-0.686-10.835-1.166-16.795c-0.121-1.499-0.76-4.556-0.494-6.067c1.139,0.178,4.332-0.482,5.731,0.115
				c0.216,0.861,0.108,3.421,0.256,4.205c0.368,1.94,0.505,4.527,0.699,7.05c0.123,1.597,0.128,3.086,0.086,4.651
				c-0.044,1.626-0.129,4.956,0.173,6.458c0.559-1.163,1.33-5.15,1.417-5.516c0.362-1.496,0.611-3.16,0.968-4.7
				c0.176-0.758,1.15-7.509,1.876-9.763c1.508-0.087,4.479,0.085,4.479,0.085s0.894,3.358,0.989,4.649
				c0.156,2.104,0.426,3.99,0.646,5.899c0.217,1.852,0.706,6.144,0.869,6.168C96.414,67.324,97.475,59.192,99.041,51.317z"/>
			<path fill="#F89B06" d="M126.62,130.28c-0.839,0.409-5.13,0.644-7.063,0.935c-2.969-4.193-6.49-11.426-9.068-15.839
				c0.236,4.126,0.443,11.44,1,15.629c0.181,1.343,0.447,2.478,0.082,3.854c-13.204,2.139-30.669,0.455-43.613,1.719
				c-0.043,2.154,0.268,7.098-0.056,9.913c0.481-0.037,1.438-1.188,1.866-1.579c0.406-0.375,0.883-0.893,1.186-1.278
				c0.449-0.577,1.62-1.645,1.62-1.645s1.444,0.754,2.211,1.603c0.862,0.955,1.678,1.953,2.378,2.776
				c-0.728,1.427-2.19,2.127-3.284,3.184c-3.139,3.033-6.848,5.589-9.786,9.206c-2.839-2.316-5.49-4.675-8.255-7.089
				c-1.345-1.173-3.041-2.067-4.025-3.615c1.04-1.729,1.81-3.853,3.371-4.825c2.07,0.65,3.809,2.805,5.476,3.735
				c0.057-4.461-0.261-11.646,0.106-16.567c0.838-0.629,2.788-0.338,4.07-0.506c5.923-0.769,11.855-0.48,17.867-1.068
				c7.427-0.729,15.146,0.654,22.202-1.281c0.104-1.063,0.031-2.402-0.074-3.387c0.21-6.036-0.023-12.059-0.374-17.725
				c-0.121-1.99,0.104-4.017,0.005-5.943c-0.051-0.946-0.096-1.584,0.01-2.646c1.668-0.395,4.055-0.086,6.067-0.156
				c1.491,3.871,2.642,7.713,4.163,11.748c0.502,1.329,3.355,9.26,5.338,11.241c0.199-10.144-1.023-23.942-1.186-32.809
				c-0.01-0.683,0.043-3.568,0.043-3.568l6.346-0.174c0,0-0.188,3.606-0.085,5.517c0.126,2.326,0.274,4.598,0.379,5.836
				c0.354,4.321,0.118,7.379-0.038,12.063c-0.104,3.075,0.615,7.397,0.662,10.11C126.23,121.816,126.41,126.256,126.62,130.28z"/>
			<path fill="#F89B06" d="M104.729,91.219c-0.789,3.934-1.81,9.426-2.881,15.87c-0.469,2.838-0.918,5.499-1.484,8.736
				c-0.537,3.069-0.924,7.179-1.754,8.702c-1.799,0.275-3.094,0.461-5.588,0.14c-0.637-3.136-1.135-10.79-1.678-13.991
				c-0.923,3.215-2.783,11.023-4.094,14.36c-1.53,0.519-4.045,0.61-5.635,0.323c-0.138-1.108-0.138-1.826-0.361-2.896
				c-0.648-3.12-0.428-7.141-0.977-9.849c-0.171-0.845-0.164-1.913-0.291-2.774c-0.264-1.752-0.322-3.548-0.494-5.263
				c-0.199-1.966-0.445-4.048-0.634-6.074c-0.172-1.854-0.485-3.761-0.302-5.626c1.268-0.885,3.083-0.998,5.305-0.535
				c0.99,6.059,1.518,12.443,2.62,18.426c0.863-0.822,0.966-2.438,1.229-3.418c0.321-1.188,0.335-2.283,0.647-3.416
				c1.113-4.057,0.949-7.858,1.724-11.533c1.192-0.483,3.269-0.352,4.372-0.336c0.6,2.588,0.882,5.344,0.922,8.037
				c0.04,2.715,0.409,5.084,0.818,7.463c1.425-3.385,1.47-8.783,2.754-13.016c0.34-1.117,0.49-1.93,0.677-3.084
				C100.822,90.857,103.07,90.473,104.729,91.219z"/>
			<g>
				<path fill="#F89B06" d="M77.256,98.409c-0.319-1.942-2.24-6.354-6.941-6.753c-1.045-0.09-2.732,0.088-3.643,0.277
					c-3.208,0.67-6.648,3.498-7.774,6.588c-0.72,1.982-0.72,5.559-0.582,8.711c0.281,6.472,0.482,13.896,4.257,16.188
					c3.774,2.293,6.653,1.598,9.161,0.785c0.909-0.296,1.381-0.434,1.999-0.863c0.619-0.43,0.849-0.553,1.257-1.046
					c0.407-0.493,1.152-2.139,1.409-2.995C78.344,112.816,77.576,100.354,77.256,98.409z M73.094,114.423
					c-0.522,4.251-2.122,5.476-6.182,4.604c-0.893-0.191-2.365-1.688-2.757-2.985c-0.476-1.577-0.644-2.589-0.918-5.741
					c-0.304-3.503,0.042-6.371,0.69-9.185c0.432-1.878,2.719-4.425,4.821-4.134c0.687-0.039,2.099,1.053,2.479,1.717
					c0.082,0.141,1.157,2.708,1.262,3.438c0.201,1.41,0.53,2.551,0.661,5.413C73.261,109.967,73.342,112.396,73.094,114.423z"/>
			</g>
			<g>
				<path fill="#F89B06" d="M56.619,105.518c-0.148-6.482-1.857-12.797-8.071-13.789c-3.033-0.482-7.348-0.026-10.104,1.309
					c-0.154,4.805-0.282,9.634-0.311,14.51c-0.032,5.621-0.029,12.192-0.029,16.358c0,0.577,1.625,0.366,2.253,0.692
					c2.309,0.438,3.509,0.594,5.125,0.37c0.84-0.118,1.56-0.317,2.343-0.462c1.601-0.293,5.363-1.997,6.331-3.104
					c1.164-1.328,2.366-4.793,2.463-7.266C56.709,111.868,56.69,108.523,56.619,105.518z M43.521,97.607
					c1.201-0.094,3.535-0.734,5.125,0.186c1.401,0.811,2.67,3.723,3.11,5.816c0.705,3.373-0.046,6.668-0.309,9.666
					c-0.192,2.203,0.139,3.48-1.539,4.927c-0.833,0.716-2.108,1.399-2.647,1.539c-1.432,0.366-3.129,0.508-3.694,0
					c0.045-0.83,0.015-3.078,0.059-3.632"/>
			</g>
			<path fill="#F89B06" d="M82.404,14.336c0.388,4.143,0.279,7.423,0.338,11.576c0.011,0.75,0.076,9.538,0.119,13.098
				c0.019,1.59-0.084,3.435-0.018,5.025c0.109,2.638,0.42,5.262,0.076,7.783c-1.631,0.396-2.853-0.03-4.699,0.058
				c0-0.688-0.229-4.444-0.28-5.541c-0.075-1.587,0.023-5.07,0.023-5.07s-4.64-0.117-5.869-0.064
				c-0.206,3.712-0.234,7.231-0.465,10.732c-1.14-0.185-1.708,0.319-4.813,0.056c-0.143-1.368,0.01-2.423-0.1-3.825
				c-0.045-0.611-0.096-5.38-0.111-7.227c-0.014-1.701,0.086-3.317,0.181-5c0.237-4.257-0.659-9.45-0.06-14.429
				c1.125-0.65,3.484-0.584,4.756-0.362c-0.059,5.305,0.194,11.766,0.453,15.297c2.213,0.006,4.108-0.078,6.506-0.031
				c-0.246-1.135,0.224-2.384,0.121-3.667c-0.031-0.387-0.117-1.931-0.102-2.365c0.052-1.322-0.282-2.711-0.313-4.075
				c-0.031-1.416,0.093-2.784,0.042-4.185c-0.101-2.779-0.605-4.495-0.055-7.624C79.336,13.797,80.6,14.119,82.404,14.336z"/>
			<path fill="#F89B06" d="M76.016,14.206c0.072,1.676,0.477,3.693-0.072,5.351c-4.199-0.349-8.97,0.137-13.541-0.292
				c-0.471,0.994-0.357,6.563-0.262,8.507c0.086,1.756,0.312,3.461,0.282,5.244c-0.102,5.995,0.327,12.333-0.334,18.72
				c-1.579,0.064-3.413,0.538-5.359,0.082c-0.358-1.481,0.04-6.864,0-8.023c-0.039-1.135,0.161-2.425,0.115-3.61
				c-0.067-1.717-0.138-4.481,0-7.966c0.152-3.837-0.542-8.553-0.057-12.436C50.591,20,45.893,19.81,39.479,19.267
				c-0.318-1.931,1.784-0.389,2.178-2.35c0.983,0.223,1.411-1.563,2.349-1.719c1.834-0.307,1.666-1.347,2.178-1.377
				c1.157-0.067,0.042-0.491,1.262-0.629c0.491-0.055,0.646,0.092,1.24,0.053c0.456-0.029,3.256-0.002,4.184,0.042
				c1.283,0.06,2.532-0.21,3.887-0.178c2.685,0.062,5.505,0.527,8.284,0.572C68.851,13.74,71.974,13.479,76.016,14.206z"/>
			<g>
				<path fill="#F89B06" d="M73.746,66.047c-0.35-2.429-0.456-4.595-1.121-6.227c-0.436-1.071-0.429-3.067-2.892-4.682
					c-2.464-1.615-6.861-0.805-9.294,0.429c-3.045,1.546-5.004,3.928-5.327,8.65c-0.364,5.298-0.806,13.275-0.197,17.905
					c0.104,0.785,0.612,1.93,1.051,2.694c1.564,2.713,4.429,4.551,8.216,4.917c1.486,0.146,3.155,0.313,4.51,0.098
					c2.285-0.365,3.649-1.559,4.306-3.626c0.946-2.99,1.485-7.638,1.554-10.13C74.668,72.069,74.231,69.429,73.746,66.047z
					 M69.982,71.952c-0.076,1.821,0.104,3.233-0.043,4.822c-0.352,3.824-1.339,7.132-3.79,7.837
					c-1.468,0.422-3.332-0.161-4.046-1.206c-0.371-0.54-0.708-0.658-0.818-1.334c-0.117-0.727-0.476-1.537-0.56-2.153
					c-0.062-0.461-0.031-2.529-0.087-3.015c-0.237-2.125-0.031-3.377-0.171-5.985c-0.118-2.192-0.467-4.351,0.302-7.706
					c0.167-0.73,0.475-2.15,0.775-2.512c0.146-0.177,0.614-0.992,1.547-1.317c0.385-0.133,1.091-0.234,1.605-0.343
					c0.685-0.15,2.205,0.111,3.152,1.318c0.948,1.205,1.262,2.963,1.619,6.771C69.619,68.755,70.059,70.146,69.982,71.952z"/>
			</g>
			<path fill="#F89B06" d="M45.707,54.747c0.012,0.561-0.154,2.559-0.174,2.989c-0.072,1.544,0.402,3.163,0.364,4.756
				c-0.04,1.625-0.305,3.227-0.315,4.809c-0.038,5.642,0.079,10.171,0.115,15.575c2.961,0.036,5.382-0.428,8.296,0.206
				c-0.142,1.834,0.084,4.136-0.398,5.984c-4.225-0.582-9.875-0.486-14.183-0.4c-0.423-3.99-0.306-7.671-0.204-11.604
				c0.061-2.376,0.183-4.415,0.03-6.847c-0.083-1.319-0.072-3.066-0.129-4.402c-0.161-3.887-0.483-8.51-0.387-12.39
				c0.861-0.172,1.859,0.05,2.849-0.101c1.046-0.157,2.769-0.347,3.788-0.479C45.415,52.854,45.693,54.12,45.707,54.747z"/>
		</g>
	</g>
</g>
</svg>
