<?xml version="1.0" encoding="utf-8"?>
<!-- Generator: Adobe Illustrator 16.0.0, SVG Export Plug-In . SVG Version: 6.00 Build 0)  -->
<!DOCTYPE svg PUBLIC "-//W3C//DTD SVG 1.1//EN" "http://www.w3.org/Graphics/SVG/1.1/DTD/svg11.dtd">
<svg version="1.1" id="Layer_1" xmlns="http://www.w3.org/2000/svg" xmlns:xlink="http://www.w3.org/1999/xlink" x="0px" y="0px"
	 width="449.627px" height="449.054px" viewBox="0 0 449.627 449.054" enable-background="new 0 0 449.627 449.054"
	 xml:space="preserve">
<g>
	<path d="M449.627,224.814C449.627,100.653,348.975,0,224.813,0C100.651,0,0,100.653,0,224.814
		c0,118.778,92.124,216.034,208.82,224.239c0-90.169,0-351.664,0-367.373c0-27.757,47.109-27.976,47.109,6.05
		c0,35.333,0,272.757,0,359.742C365.361,432.318,449.627,338.412,449.627,224.814z"/>
	<path fill="#FFFFFF" d="M208.82,81.681c0,15.709,0,277.204,0,367.373c5.284,0.371,10.614,0.572,15.992,0.572
		c10.561,0,20.944-0.745,31.117-2.153c0-86.985,0-324.409,0-359.742C255.93,53.705,208.82,53.924,208.82,81.681z"/>
</g>
<g>
	<path d="M390.665,284.385c-0.145,0-0.289-0.021-0.433-0.059L91.467,202.95c-0.745-0.202-1.248-0.895-1.212-1.67l6.615-135.76
		c0.031-0.668,0.466-1.249,1.097-1.472l15.403-5.431c0.177-0.059,0.363-0.091,0.548-0.091c0.277,0,0.553,0.069,0.796,0.206
		l279.23,147.97c0.47,0.26,0.782,0.733,0.841,1.27l2.119,68.017c0.042,0.396-0.058,0.788-0.284,1.113l-4.606,6.577
		C391.699,284.129,391.192,284.385,390.665,284.385z"/>
	<path fill="#FFFFFF" d="M113.917,60.172L388.69,212.333l6.582,63.825l-4.607,6.582L91.899,201.359l6.613-135.761L113.917,60.172
		 M113.917,56.883c-0.371,0-0.737,0.062-1.092,0.185l-15.405,5.428c-1.264,0.445-2.13,1.607-2.193,2.946l-6.615,135.761
		c-0.075,1.541,0.931,2.93,2.421,3.334l298.765,81.376c0.285,0.079,0.577,0.116,0.866,0.116c1.055,0,2.068-0.511,2.695-1.401
		l4.606-6.581c0.454-0.647,0.655-1.438,0.573-2.221l-2.12-68.021c-0.111-1.071-0.737-2.02-1.678-2.543L115.513,57.295
		C115.018,57.019,114.47,56.883,113.917,56.883L113.917,56.883z"/>
</g>
<polygon fill="#FFFFFF" points="114.137,59.896 109.413,190.138 398.05,277.309 395.045,206.947 "/>
<g>
	<path d="M124.512,393.822c-0.634-0.013-1.215-0.379-1.5-0.944l-1.261-2.521c-0.127-0.264-0.189-0.557-0.177-0.849l2.955-60.37
		c0.042-0.861,0.717-1.558,1.575-1.624l192.37-15.21c0.045-0.004,0.091-0.004,0.132-0.004c0.486,0,0.948,0.201,1.273,0.564
		l5.671,6.301c0.284,0.317,0.44,0.729,0.44,1.158l-0.741,75.473c-0.004,0.458-0.19,0.891-0.52,1.212
		c-0.321,0.309-0.746,0.482-1.195,0.482C323.526,397.49,124.512,393.822,124.512,393.822z"/>
</g>
<g>
	<g>
		<g>
			<path d="M134.521,175.748c-1.955,0-5.778-1.803-5.939-1.879c-2.652-1.26-4.003-2.069-4.321-2.58
				c-1.04-1.677,6.808-70.323,8.391-84.066c0.012-0.102,0.07-0.192,0.157-0.245c0.052-0.032,0.111-0.048,0.171-0.048
				c0.04,0,0.081,0.007,0.119,0.022l10.625,4.099c0.142,0.055,0.229,0.2,0.208,0.351c-0.065,0.492-6.353,48.136-7.922,64.948
				c7.029-10.209,27.592-53.446,27.806-53.897c0.038-0.079,0.105-0.14,0.188-0.169c0.036-0.013,0.073-0.019,0.11-0.019
				c0.049,0,0.097,0.011,0.142,0.032l10.129,4.83c0.082,0.04,0.144,0.111,0.172,0.198s0.018,0.182-0.026,0.261l-0.17,0.312
				c-11.108,20.361-37.213,67.73-39.699,67.847L134.521,175.748z"/>
			<path d="M132.979,87.26l10.625,4.099c0,0-6.653,50.352-8.032,66.153c6.331-8.16,28.541-54.918,28.541-54.918l10.129,4.83
				c-0.076,0.131-36.924,67.865-39.598,67.991c-0.04,0.002-0.081,0.003-0.123,0.003c-1.813,0-5.482-1.698-5.798-1.848
				c-0.686-0.326-3.754-1.769-4.183-2.456C123.508,169.45,132.979,87.26,132.979,87.26 M132.979,86.6
				c-0.119,0-0.237,0.032-0.341,0.095c-0.175,0.105-0.291,0.286-0.314,0.489c-0.024,0.206-2.394,20.788-4.607,41.308
				c-4.501,41.737-4.004,42.539-3.737,42.97c0.257,0.412,0.979,1.05,4.39,2.671l0.07,0.033c0.165,0.079,4.053,1.912,6.082,1.912
				c0.052,0,0.104-0.001,0.153-0.003c0.742-0.035,1.983-0.094,20.198-32.344c8.3-14.696,16.595-29.844,19.776-35.674l0.169-0.31
				c0.088-0.159,0.107-0.349,0.052-0.522c-0.056-0.173-0.18-0.317-0.344-0.396l-10.129-4.83c-0.09-0.042-0.187-0.064-0.284-0.064
				c-0.075,0-0.149,0.013-0.221,0.038c-0.165,0.059-0.3,0.18-0.375,0.338c-0.208,0.437-19.462,40.922-27.054,52.757
				c1.753-17.836,7.732-63.144,7.795-63.623c0.04-0.302-0.132-0.592-0.417-0.702l-10.625-4.099
				C133.139,86.615,133.059,86.6,132.979,86.6L132.979,86.6z"/>
		</g>
	</g>
	<g>
		<path d="M294.586,231.44c-0.417-0.056-4.708-1.292-5.47-1.629c-2.347-1.038-2.064-5.914-1.381-17.693
			c0.203-3.501,0.451-7.777,0.666-12.682c-8.214,16.934-13.85,25.52-16.752,25.52c-0.125,0-0.247-0.015-0.362-0.044
			c-0.042-0.011-4.31-1.22-4.914-2.112c-1.175-1.737,4.265-65.846,4.406-66.366c0.026-0.096,0.094-0.176,0.186-0.216
			c0.042-0.019,0.087-0.028,0.132-0.028c0.052,0,0.104,0.013,0.152,0.038l8.569,4.452c0.121,0.063,0.191,0.193,0.176,0.329
			c-0.043,0.392-4.042,36.653-5.45,49.234c3.327-8.189,9.545-24.386,13.4-34.426c2.316-6.032,3.344-8.707,3.438-8.886
			c0.059-0.112,0.173-0.177,0.292-0.177c0.045,0,0.09,0.009,0.133,0.028l8.243,3.649c0.083,0.037,0.146,0.105,0.177,0.19
			c0.03,0.085,0.025,0.179-0.016,0.259c0.008,0.039-4.166,32.368-5.628,44.582c4.661-12.075,13.757-40.518,13.855-40.825
			c0.029-0.091,0.097-0.166,0.186-0.203c0.041-0.018,0.085-0.026,0.128-0.026c0.05,0,0.101,0.012,0.146,0.035l7.357,3.647
			c0.08,0.04,0.14,0.109,0.167,0.193c0.027,0.084,0.02,0.177-0.022,0.255c-0.006,0.021-0.141,0.397-0.375,1.049
			c-12.358,34.409-19.549,51.858-21.374,51.858C294.654,231.445,294.6,231.442,294.586,231.44z"/>
		<path d="M271.097,156.52l8.569,4.452c0,0-4.63,41.991-5.713,51.574c4.346-10.398,17.439-44.924,17.722-45.463l8.243,3.649
			c-0.019,0.037-4.913,38.049-5.952,47.17c4.298-10.327,14.788-43.165,14.788-43.165l7.357,3.647
			c-0.074,0.141-18.71,52.73-21.458,52.73c-0.009,0-0.018,0-0.026-0.001c-0.362-0.049-4.637-1.275-5.379-1.604
			c-2.889-1.277-1.33-10.203-0.452-31.64c-0.364,0.639-12.479,26.756-17.148,26.756c-0.097,0-0.191-0.011-0.281-0.034
			c-0.736-0.186-4.267-1.306-4.722-1.978C265.549,220.993,271.063,156.646,271.097,156.52 M271.097,155.86
			c-0.09,0-0.18,0.019-0.265,0.056c-0.183,0.08-0.319,0.239-0.372,0.431c-0.059,0.219-1.565,18.136-2.671,32.609
			c-2.507,32.82-1.976,33.606-1.69,34.028c0.702,1.036,5.063,2.237,5.107,2.248c0.141,0.036,0.29,0.054,0.442,0.054
			c1.115,0,4.449,0,16.351-24.274c-0.197,4.241-0.413,7.971-0.594,11.087c-0.693,11.941-0.979,16.884,1.577,18.014
			c0.808,0.357,5.119,1.595,5.558,1.654c0.029,0.004,0.084,0.007,0.114,0.007c0.892,0,2.98,0,21.685-52.076
			c0.223-0.621,0.356-0.991,0.383-1.063c0.059-0.144,0.065-0.305,0.017-0.454c-0.055-0.169-0.175-0.309-0.334-0.387l-7.357-3.647
			c-0.092-0.046-0.192-0.069-0.293-0.069c-0.087,0-0.175,0.017-0.257,0.052c-0.177,0.075-0.313,0.224-0.371,0.407
			c-0.091,0.286-8.044,25.153-12.884,38.248c1.663-13.588,5.271-41.53,5.327-41.942c0.019-0.111,0.009-0.226-0.03-0.333
			c-0.061-0.17-0.188-0.307-0.354-0.38l-8.243-3.649c-0.086-0.039-0.177-0.057-0.267-0.057c-0.239,0-0.468,0.13-0.585,0.354
			c-0.096,0.184-0.784,1.968-3.454,8.92c-3.529,9.191-9.04,23.543-12.497,32.184c1.588-14.242,5.142-46.468,5.182-46.837
			c0.03-0.271-0.11-0.532-0.352-0.658l-8.569-4.452C271.306,155.885,271.201,155.86,271.097,155.86L271.097,155.86z"/>
	</g>
	<g>
		<g>
			<path d="M172.112,190.43c-0.042,0-0.085-0.008-0.125-0.025l-10.819-4.444c-0.159-0.065-0.241-0.241-0.189-0.405l23.261-73.234
				c0.029-0.092,0.098-0.167,0.187-0.204c0.041-0.017,0.084-0.026,0.127-0.026c0.051,0,0.102,0.012,0.149,0.036l10.868,5.501
				c0.145,0.073,0.215,0.241,0.165,0.396l-23.31,72.177c-0.028,0.087-0.092,0.159-0.175,0.198
				C172.207,190.419,172.159,190.43,172.112,190.43z"/>
			<path d="M184.554,112.422l10.868,5.501l-23.31,72.177l-10.819-4.444L184.554,112.422 M184.554,111.762
				c-0.087,0-0.173,0.017-0.255,0.051c-0.178,0.075-0.315,0.224-0.374,0.409l-23.261,73.233c-0.104,0.327,0.061,0.68,0.378,0.81
				l10.819,4.444c0.08,0.033,0.166,0.049,0.25,0.049c0.095,0,0.189-0.021,0.278-0.061c0.167-0.078,0.293-0.221,0.35-0.396
				l23.31-72.177c0.1-0.309-0.04-0.645-0.33-0.791l-10.868-5.501C184.758,111.786,184.656,111.762,184.554,111.762L184.554,111.762z
				"/>
		</g>
	</g>
	<g>
		<g>
			<path d="M219.206,206.784c-0.031,0-0.062-0.004-0.092-0.013l-7.888-2.281c-0.132-0.039-0.227-0.155-0.237-0.292l-3.762-51.099
				l-11.985,44.679c-0.023,0.086-0.08,0.159-0.157,0.202c-0.049,0.028-0.105,0.042-0.161,0.042c-0.031,0-0.063-0.005-0.093-0.014
				l-9.323-2.745c-0.173-0.051-0.273-0.232-0.224-0.407l20.487-72.043c0.027-0.095,0.096-0.173,0.187-0.213
				c0.042-0.018,0.086-0.027,0.13-0.027c0.053,0,0.105,0.013,0.153,0.038l8.701,4.542c0.104,0.054,0.171,0.16,0.177,0.277
				l2.269,48.315l9.955-41.554c0.024-0.099,0.092-0.182,0.184-0.224c0.043-0.02,0.09-0.03,0.137-0.03
				c0.053,0,0.105,0.013,0.153,0.038l8.701,4.542c0.135,0.071,0.205,0.226,0.167,0.374l-17.158,67.645
				c-0.022,0.087-0.078,0.161-0.156,0.205C219.32,206.769,219.263,206.784,219.206,206.784z"/>
			<path d="M206.087,122.903l8.701,4.542l2.378,50.636l10.497-43.813l8.701,4.542l-17.158,67.645l-7.888-2.281l-3.905-53.041
				l-12.489,46.56l-9.323-2.745L206.087,122.903 M206.087,122.244c-0.088,0-0.177,0.018-0.261,0.054
				c-0.182,0.079-0.319,0.235-0.374,0.425l-20.487,72.043c-0.099,0.348,0.101,0.711,0.448,0.813l9.323,2.745
				c0.061,0.018,0.124,0.027,0.187,0.027c0.112,0,0.223-0.028,0.323-0.084c0.155-0.087,0.269-0.232,0.314-0.404l11.48-42.798
				l3.62,49.157c0.02,0.275,0.209,0.509,0.475,0.585l7.888,2.281c0.06,0.017,0.122,0.026,0.183,0.026
				c0.114,0,0.227-0.03,0.328-0.087c0.155-0.089,0.268-0.237,0.312-0.41l17.158-67.645c0.075-0.296-0.063-0.605-0.334-0.747
				l-8.701-4.542c-0.095-0.05-0.2-0.075-0.305-0.075c-0.093,0-0.187,0.02-0.273,0.059c-0.185,0.084-0.321,0.249-0.368,0.447
				l-9.414,39.295l-2.16-45.994c-0.011-0.234-0.146-0.445-0.354-0.554l-8.701-4.542
				C206.297,122.269,206.192,122.244,206.087,122.244L206.087,122.244z"/>
		</g>
	</g>
	<g>
		<path d="M253.492,217.729c-0.026,0-0.053-0.003-0.08-0.01c-9.061-2.262-17.551-5.145-20.083-6.186
			c-2.113-0.867-2.732-2.173-3.064-2.875c-0.057-0.121-0.104-0.223-0.151-0.3c-0.755-1.227-0.403-3.715,0.141-5.04l14.8-57.234
			c0.208-0.518,0.635-0.759,1.28-0.759c1.546,0,4.645,1.413,9.777,3.753c2.985,1.361,6.701,3.056,11.171,4.955
			c0.151,0.064,0.232,0.23,0.189,0.389l-2.258,8.416c-0.024,0.089-0.084,0.165-0.166,0.207c-0.048,0.025-0.1,0.038-0.152,0.038
			c-0.038,0-0.076-0.007-0.113-0.02c-0.387-0.141-9.09-3.318-11.968-5.054l-5.593,18.651l12.659,4.59
			c0.163,0.059,0.252,0.233,0.205,0.399l-2.274,8.064c-0.024,0.087-0.084,0.161-0.165,0.203c-0.048,0.025-0.1,0.038-0.153,0.038
			c-0.037,0-0.073-0.006-0.108-0.019l-12.254-4.247l-5.444,18.713c0.777,0.237,1.984,0.622,3.409,1.076
			c4.31,1.374,10.822,3.45,13.101,3.865c0.095,0.018,0.177,0.075,0.226,0.158c0.048,0.083,0.059,0.183,0.027,0.274l-2.645,7.729
			C253.758,217.641,253.63,217.729,253.492,217.729z"/>
		<path d="M246.333,145.656c2.348,0,8.783,3.568,20.819,8.682l-2.258,8.416c0,0-9.894-3.603-12.271-5.258l-5.809,19.369
			l12.952,4.696l-2.274,8.064l-12.582-4.36l-5.633,19.36c2.732,0.812,13.704,4.47,16.858,5.044l-2.645,7.729
			c-8.945-2.233-17.394-5.084-20.038-6.171c-2.387-0.979-2.74-2.521-3.061-3.042c-0.693-1.127-0.332-3.531,0.165-4.741
			l14.814-57.277C245.516,145.819,245.831,145.655,246.333,145.656 M246.333,144.996c-0.986,0-1.399,0.501-1.571,0.921
			c-0.011,0.027-0.021,0.056-0.028,0.085l-14.804,57.235c-0.54,1.349-0.939,3.929-0.099,5.294c0.042,0.069,0.084,0.161,0.135,0.268
			c0.352,0.742,1.005,2.124,3.237,3.039c2.54,1.044,11.051,3.934,20.129,6.201c0.053,0.013,0.107,0.02,0.16,0.02
			c0.276,0,0.531-0.174,0.624-0.446l2.645-7.729c0.063-0.182,0.042-0.381-0.055-0.547c-0.097-0.166-0.262-0.281-0.451-0.315
			c-2.258-0.411-8.758-2.483-13.06-3.855c-1.27-0.404-2.335-0.745-3.102-0.981l5.257-18.068l11.927,4.133
			c0.07,0.024,0.143,0.036,0.216,0.036c0.105,0,0.21-0.025,0.305-0.075c0.161-0.084,0.28-0.231,0.33-0.406l2.274-8.064
			c0.094-0.333-0.085-0.682-0.41-0.799l-12.366-4.484l5.384-17.954c3.222,1.791,11.286,4.734,11.658,4.87
			c0.073,0.026,0.149,0.04,0.226,0.04c0.105,0,0.209-0.025,0.305-0.074c0.164-0.085,0.285-0.236,0.333-0.415l2.258-8.416
			c0.085-0.317-0.077-0.649-0.379-0.778c-4.466-1.898-8.179-3.591-11.163-4.952C250.898,146.34,247.952,144.996,246.333,144.996
			L246.333,144.996z"/>
	</g>
	<g>
		<g>
			<path d="M353.082,248.88c-0.691,0-1.423-0.073-2.178-0.217c-1.149-0.218-2.354-0.593-3.685-1.148
				c-8.114-3.365-10.186-6.502-8.866-13.429c0.534-2.795,2.067-11.696,4.434-25.74l0.134-0.797l1.587-8.321
				c0.625-3.266,3.548-5.375,7.447-5.375c0.743,0,1.516,0.076,2.297,0.225c1.497,0.284,5.779,2.23,5.961,2.313
				c4.706,2.175,8.161,4.589,6.36,14.032c-0.944,4.942-2.7,14.723-5.221,29.07c-0.158,0.899-0.251,1.427-0.258,1.465
				C359.845,247.505,356.048,248.88,353.082,248.88C353.082,248.88,353.082,248.88,353.082,248.88z M352.711,200.613
				c-0.607,0-1.359,0.305-1.787,2.682c-0.514,2.859-4.946,27.305-5.875,32.171l-0.084,0.434c-0.574,2.946-0.648,3.325,4.762,5.568
				c0.909,0.375,1.719,0.632,2.405,0.765c0.421,0.08,0.737,0.13,1.002,0.13c0.603,0,1.064-0.188,1.527-2.615
				c0.007-0.036,0.084-0.478,0.218-1.235c2.534-14.425,4.305-24.289,5.264-29.318c0.986-5.172,0.499-5.397-2.672-6.863
				c-0.541-0.251-1.975-0.861-3.522-1.431C353.562,200.759,353.112,200.613,352.711,200.613z"/>
			<path d="M351.956,194.204c0.713,0,1.459,0.071,2.23,0.219c1.389,0.264,5.345,2.043,5.881,2.287
				c4.716,2.18,7.916,4.436,6.159,13.645c-1.677,8.782-5.431,30.286-5.479,30.534c-1.153,6.045-4.482,7.638-7.666,7.638
				c-0.72,0-1.433-0.082-2.111-0.211c0,0,0,0-0.003,0c-1.116-0.212-2.298-0.579-3.612-1.127c-8.01-3.321-9.949-6.242-8.654-13.037
				c0.916-4.799,4.522-26.274,4.569-26.543l1.586-8.315C345.463,196.124,348.257,194.204,351.956,194.204 M353.134,242.716
				c0.961,0,1.432-0.581,1.875-2.902c0.044-0.23,3.803-21.752,5.481-30.553c1.037-5.44,0.366-5.754-2.871-7.25
				c-0.606-0.281-2.05-0.89-3.548-1.441c-0.471-0.173-0.931-0.31-1.36-0.31c-0.934,0-1.716,0.648-2.134,2.973
				c-0.518,2.88-4.951,27.329-5.875,32.167c-0.661,3.46-1.044,3.935,4.89,6.395c0.93,0.383,1.762,0.647,2.473,0.785
				C352.479,242.658,352.831,242.716,353.134,242.716 M351.956,193.498c-4.076,0-7.135,2.223-7.793,5.663l-1.586,8.316l-0.137,0.81
				c-2.367,14.042-3.899,22.94-4.432,25.733c-1.361,7.144,0.759,10.373,9.078,13.822c1.353,0.563,2.58,0.946,3.751,1.168
				c0.009,0.001,0.018,0.003,0.027,0.004c0.767,0.146,1.514,0.219,2.219,0.219c3.099,0,7.065-1.425,8.36-8.212
				c0.007-0.037,0.101-0.566,0.259-1.469c2.521-14.345,4.276-24.124,5.22-29.065c1.85-9.694-1.71-12.178-6.557-14.418
				c-0.463-0.211-4.533-2.053-6.045-2.34C353.517,193.576,352.721,193.498,351.956,193.498L351.956,193.498z M353.134,242.009
				c-0.237,0-0.546-0.05-0.938-0.124c-0.661-0.128-1.447-0.379-2.336-0.745c-5.142-2.132-5.097-2.361-4.549-5.173l0.084-0.436
				c0.93-4.868,5.363-29.315,5.876-32.175c0.43-2.391,1.163-2.391,1.439-2.391c0.347,0,0.778,0.142,1.116,0.266
				c1.537,0.566,2.959,1.171,3.494,1.419c3.086,1.426,3.409,1.575,2.475,6.477c-0.96,5.031-2.731,14.896-5.265,29.322
				c-0.131,0.748-0.208,1.187-0.217,1.232C353.871,242.009,353.497,242.009,353.134,242.009L353.134,242.009z"/>
		</g>
	</g>
	<g>
		<g>
			<path d="M326.497,240.507c-0.695,0-1.432-0.074-2.192-0.218c-1.14-0.218-2.389-0.607-3.71-1.157
				c-8.167-3.387-10.251-6.543-8.92-13.512c0.758-3.978,3.633-20.08,4.715-26.142c0.224-1.254,0.361-2.019,0.37-2.067l1.6-8.372
				c0.805-3.812,2.909-5.741,6.254-5.741c1.061,0,2.232,0.183,3.58,0.561c2.24,0.627,5.824,2.253,5.976,2.322
				c4.737,2.192,8.214,4.623,6.399,14.128c-0.963,5.041-2.898,15.423-5.751,30.86l-0.251,1.361
				C333.306,239.123,329.483,240.507,326.497,240.507C326.498,240.507,326.498,240.507,326.497,240.507z M326.723,190.356
				c-0.618,0-1.202,0.158-1.556,2.06c0,0-5.552,29.684-6.481,34.555c-0.053,0.278-0.106,0.538-0.156,0.782
				c-0.553,2.71-0.638,3.126,4.589,5.296c0.924,0.382,1.739,0.642,2.421,0.771c0.401,0.077,0.747,0.144,0.994,0.144
				c0.484,0,0.678-0.2,1.133-2.58c0.009-0.044,0.152-0.819,0.391-2.112c1.046-5.653,4.227-22.856,5.617-30.132
				c1.04-5.447,0.727-5.592-2.27-6.981c-0.117-0.054-0.305-0.145-0.54-0.259c-0.894-0.434-2.752-1.337-3.391-1.458
				C327.176,190.384,326.931,190.356,326.723,190.356z"/>
			<path d="M324.613,183.651c1.063,0,2.233,0.197,3.485,0.548c2.074,0.581,5.384,2.058,5.925,2.304
				c4.743,2.194,7.97,4.467,6.198,13.74c-1.688,8.84-5.955,31.971-6.003,32.222c-1.162,6.087-4.512,7.688-7.721,7.688
				c-0.725,0-1.442-0.082-2.126-0.212c-1.11-0.212-2.333-0.592-3.641-1.136c-8.062-3.343-10.015-6.286-8.709-13.119
				c0.921-4.837,5.034-27.94,5.085-28.21l1.6-8.371C319.54,185.157,321.673,183.651,324.613,183.651 M326.534,234.317
				c0.815,0,1.041-0.568,1.48-2.867c0.046-0.234,4.315-23.384,6.008-32.244c1.046-5.479,0.792-5.856-2.469-7.368
				c-0.605-0.28-3.167-1.584-4.014-1.744c-0.301-0.058-0.572-0.091-0.816-0.091c-1.018,0-1.573,0.577-1.903,2.348
				c0,0-5.552,29.683-6.481,34.554c-0.663,3.485-1.326,3.992,4.646,6.471c0.936,0.387,1.771,0.655,2.49,0.792
				C325.915,234.252,326.258,234.317,326.534,234.317 M324.613,182.945c-3.535,0-5.755,2.024-6.598,6.015l-1.602,8.384
				c-0.009,0.05-0.146,0.816-0.371,2.072c-1.083,6.061-3.958,22.162-4.714,26.138c-1.373,7.184,0.761,10.433,9.132,13.904
				c1.343,0.559,2.615,0.955,3.779,1.177c0.782,0.149,1.542,0.225,2.258,0.225c3.119,0,7.111-1.434,8.415-8.263
				c0.007-0.035,0.097-0.524,0.252-1.363c2.853-15.437,4.788-25.819,5.75-30.859c1.864-9.756-1.719-12.257-6.595-14.514
				c-0.157-0.071-3.766-1.708-6.031-2.343C326.909,183.133,325.707,182.945,324.613,182.945L324.613,182.945z M326.534,233.61
				c-0.213,0-0.544-0.063-0.927-0.137c-0.66-0.125-1.452-0.378-2.354-0.751c-4.958-2.058-4.903-2.327-4.378-4.899
				c0.05-0.245,0.103-0.506,0.156-0.787c0.919-4.816,6.427-34.259,6.482-34.556c0.33-1.771,0.797-1.771,1.209-1.771
				c0.186,0,0.409,0.025,0.683,0.078c0.595,0.112,2.494,1.035,3.305,1.429c0.237,0.115,0.428,0.208,0.545,0.262
				c2.945,1.365,3.06,1.418,2.072,6.595c-1.39,7.276-4.572,24.48-5.617,30.134c-0.237,1.282-0.38,2.054-0.39,2.107
				C326.912,233.451,326.744,233.61,326.534,233.61L326.534,233.61z"/>
		</g>
	</g>
	<g>
		<g>
			<path d="M380.462,257.52c-2.703,0-6.087-1.353-8.558-2.34c-0.865-0.346-1.613-0.645-2.124-0.798l-4.795-1.817
				c-0.158-0.06-0.251-0.223-0.223-0.389l8.022-47.589c0.018-0.104,0.081-0.195,0.172-0.248c0.054-0.031,0.115-0.047,0.176-0.047
				c0.042,0,0.084,0.007,0.125,0.022c0.066,0.025,6.625,2.494,11.146,4.07c6.359,2.218,6.823,2.539,6.058,8.944
				c-0.273,2.289-3.469,22.491-5.004,32.2l-0.726,4.596C384.377,256.378,382.941,257.52,380.462,257.52z M371.672,248.42
				c1.081,0.257,2.201,0.636,3.199,0.975c1.035,0.35,2.012,0.681,2.748,0.812c0.321,0.057,0.615,0.085,0.873,0.085
				c1.178,0,1.512-0.574,1.65-1.437c0.727-4.517,3.958-25.14,4.262-27.705c0.508-4.269,0.549-5.199-1.351-5.957
				c-1.665-0.665-4.125-1.619-5.079-1.989C375.887,224.785,372.143,245.604,371.672,248.42z"/>
			<path d="M373.133,204.646c0,0,6.577,2.478,11.154,4.073c6.182,2.156,6.566,2.349,5.823,8.568
				c-0.333,2.786-5.021,32.273-5.729,36.783c-0.363,2.318-1.924,3.097-3.919,3.097c-3.601,0-8.62-2.534-10.581-3.124l-4.771-1.809
				L373.133,204.646 M378.492,250.645c1.498,0,1.859-0.866,1.999-1.733c0.73-4.538,3.96-25.156,4.264-27.72
				c0.508-4.267,0.584-5.467-1.57-6.326c-2.105-0.841-5.481-2.145-5.481-2.145s-6.363,35.284-6.431,35.971
				c2.266,0.488,4.722,1.586,6.285,1.862C377.91,250.616,378.22,250.645,378.492,250.645 M373.133,203.939
				c-0.122,0-0.244,0.032-0.352,0.094c-0.183,0.105-0.31,0.287-0.345,0.495l-8.022,47.589c-0.056,0.333,0.131,0.658,0.446,0.778
				l4.771,1.809c0.543,0.166,1.284,0.461,2.142,0.804c2.498,0.998,5.918,2.366,8.689,2.366c3.337,0,4.353-2.009,4.617-3.694
				c0.128-0.816,0.387-2.45,0.726-4.595c1.536-9.711,4.732-29.918,5.006-32.213c0.791-6.618,0.114-7.085-6.292-9.319
				c-4.517-1.575-11.072-4.042-11.138-4.067C373.301,203.954,373.217,203.939,373.133,203.939L373.133,203.939z M372.075,248.156
				c0.637-3.718,4.14-23.195,6.172-34.467c1.129,0.438,3.219,1.251,4.676,1.833c1.554,0.62,1.66,1.142,1.131,5.586
				c-0.303,2.562-3.533,23.175-4.259,27.691c-0.125,0.772-0.351,1.139-1.302,1.139c-0.238,0-0.511-0.027-0.812-0.08
				c-0.71-0.125-1.675-0.452-2.696-0.798C374.077,248.752,373.069,248.411,372.075,248.156L372.075,248.156z"/>
		</g>
	</g>
</g>
<g>
	<path d="M110.489,332.793c-0.515,0-0.989-0.292-1.225-0.758l-1.26-2.519c-0.103-0.21-0.152-0.44-0.14-0.676l3.148-68.041
		c0.028-0.664,0.535-1.212,1.191-1.294l250.381-32.676c0.062-0.003,0.119-0.012,0.177-0.012c0.387,0,0.755,0.165,1.018,0.453
		l5.671,6.301c0.197,0.223,0.321,0.503,0.346,0.8l7.455,85.3c0.029,0.37-0.09,0.741-0.338,1.022
		c-0.247,0.279-0.594,0.449-0.969,0.465C375.944,321.159,110.51,332.793,110.489,332.793z"/>
</g>
<polygon fill="#FFFFFF" points="116.345,264.031 112.694,323.809 366.409,311.03 361.39,231.636 "/>
<g>
	<path fill="#FFFFFF" d="M125.454,385.28l189.349,2.429l-0.961-62.418l0.034-0.006l-0.063-1.88l-0.034-2.243l-86.969,5.103
		l-116.32,5.16c0,0-1.034,2.736,0,2.736c0.041,0,0.082,0,0.124-0.004l17.971-0.765L125.454,385.28z"/>
	<path fill="#FFFFFF" d="M375.304,278.639L373,277.87l2.888,41.921l-51.454,2.231l0.094,3.004l-0.13,72.48l-200.524-3.667
		l-3.062,1.528c0.569,1.142,1.722,1.867,2.996,1.892l200.528,3.668c0.021,0,0.041,0,0.062,0c0.891,0,1.748-0.346,2.391-0.969
		c0.651-0.634,1.025-1.508,1.035-2.423l-0.124-72.91l48.303-2.099c0.751-0.037,1.451-0.37,1.941-0.932
		c0.49-0.564,0.733-1.298,0.672-2.044L375.304,278.639z"/>
</g>
<g>
	<g>
		<path d="M213.395,312.717c-1.297,0-1.477-0.08-1.62-0.214c-0.682-0.636-0.378-2.401,0.058-4.471
			c0.093-0.442,0.172-0.818,0.201-1.057l10.364-45.5c0.288-1.798,11.455-2.481,16.243-2.691c0.005,0,0.011,0,0.017,0
			c0.113,0,0.221,0.05,0.294,0.137c0.077,0.091,0.106,0.213,0.081,0.33l-1.473,6.698c-0.037,0.167-0.18,0.29-0.351,0.301
			l-9.235,0.572l-3.802,15.668c0,0,8.578-0.389,8.584-0.389c0.116,0,0.227,0.053,0.3,0.145c0.077,0.096,0.103,0.223,0.07,0.341
			l-1.654,6.028c-0.045,0.164-0.192,0.278-0.362,0.282l-8.025,0.179l-4.326,16.157c2.745,0.051,9.856,0.188,9.856,0.188
			c0.118,0.002,0.229,0.059,0.3,0.153c0.071,0.095,0.094,0.217,0.063,0.331l-1.652,6.071c-0.045,0.164-0.191,0.279-0.361,0.283
			c-2.641,0.066-5.286,0.174-7.599,0.268C216.864,312.63,214.705,312.717,213.395,312.717
			C213.395,312.717,213.395,312.717,213.395,312.717z"/>
		<path d="M238.657,259.168l-1.473,6.698l-9.518,0.59l-3.99,16.44l9.078-0.411l-1.654,6.028l-8.313,0.185l-4.527,16.91
			c2.248,0.041,10.347,0.197,10.347,0.197l-1.652,6.071c-5.523,0.139-11.063,0.456-13.56,0.456c-0.788,0-1.273-0.031-1.357-0.11
			c-0.763-0.711,0.254-4.177,0.378-5.201l10.357-45.461C223.047,259.85,238.657,259.168,238.657,259.168 M232.755,282.485h0.005
			 M238.657,258.4c-0.011,0-0.022,0-0.034,0.001c-0.039,0.001-3.968,0.176-7.88,0.558c-7.816,0.763-8.589,1.608-8.729,2.48
			l-10.348,45.412c-0.006,0.026-0.011,0.053-0.014,0.079c-0.026,0.213-0.105,0.588-0.196,1.023c-0.492,2.34-0.775,4.056,0.057,4.831
			c0.272,0.255,0.642,0.317,1.881,0.317c1.317,0,3.48-0.088,5.985-0.189c2.323-0.095,4.957-0.201,7.594-0.268
			c0.339-0.009,0.632-0.238,0.721-0.566l1.652-6.071c0.063-0.228,0.016-0.472-0.126-0.661c-0.142-0.189-0.363-0.303-0.6-0.308
			c0,0-6.351-0.123-9.366-0.179l4.125-15.406l7.738-0.172c0.339-0.008,0.633-0.237,0.723-0.564l1.639-5.971
			c0.03-0.082,0.046-0.169,0.046-0.261c0-0.424-0.341-0.768-0.766-0.768h-0.005c-0.014,0-0.027,0-0.041,0.001l-8.05,0.364
			l3.615-14.896l8.952-0.555c0.342-0.021,0.629-0.267,0.703-0.602l1.473-6.698c0.051-0.233-0.009-0.477-0.162-0.659
			C239.099,258.5,238.883,258.4,238.657,258.4L238.657,258.4z"/>
	</g>
	<g>
		<g>
			<path d="M153.802,317.345c-3.677-0.042-5.686-0.617-6.717-1.923c-0.972-1.229-1.088-3.075-0.39-6.172
				c0.927-4.109,5.159-23.865,5.181-23.973l1.624-7.196c0.906-3.794,2.343-7.87,6.135-9.365c1.69-0.667,7.883-1.233,8.464-1.233
				c1.851,0.105,3.111,0.367,3.854,1.353c0.957,1.271,0.924,3.565-0.119,8.184c-1.39,6.167-5.381,22.809-6.883,29.074
				c-0.325,1.354-0.522,2.178-0.535,2.235c-1.418,6.285-3.193,8.329-7.599,8.75c-0.846,0.175-1.815,0.267-2.839,0.267
				L153.802,317.345z M164.491,274.387c-1.454,0.043-2.396,0.109-2.827,0.197c-1.686,0.151-2.151,1.509-2.775,3.713l-0.212,0.739
				c-0.47,1.595-2.911,12.886-4.694,21.13c-0.822,3.801-1.507,6.969-1.802,8.278c-0.293,1.299-0.264,2.109,0.091,2.554
				c0.366,0.458,1.157,0.662,2.563,0.662c0.161,0,0.329-0.003,0.504-0.008c2.034-0.061,2.856-0.523,3.416-3.002
				c0.007-0.032,0.224-0.925,0.579-2.39c1.357-5.593,4.963-20.448,6.359-26.48c0.104-0.451,0.212-0.882,0.315-1.291
				c0.424-1.69,0.759-3.026,0.289-3.628c-0.251-0.322-0.776-0.479-1.604-0.479L164.491,274.387z"/>
			<path d="M168.099,267.867c0.014,0,0.025,0,0.035,0.001c3.847,0.222,5.115,1.141,3.326,9.067
				c-1.704,7.558-7.377,31.114-7.419,31.313c-1.443,6.393-3.18,8.059-7.26,8.449c-0.861,0.176-1.803,0.265-2.803,0.265
				c-0.057,0-0.114,0-0.171-0.001c-6.543-0.075-8.053-1.787-6.736-7.627c0.933-4.132,5.142-23.781,5.183-23.98l1.622-7.188
				c0.817-3.422,2.163-7.618,5.901-9.093C161.349,268.453,167.436,267.867,168.099,267.867 M154.834,312.045
				c0.165,0,0.336-0.003,0.515-0.008c2.226-0.066,3.182-0.656,3.779-3.301c0.039-0.184,5.189-21.31,6.938-28.868
				c0.819-3.539,1.875-5.868-1.374-5.868c-0.069,0-0.14,0.001-0.213,0.003c-0.494,0.015-2.196,0.063-2.893,0.205
				c-2.224,0.196-2.584,2.372-3.278,4.72c-0.691,2.348-5.564,25.271-6.503,29.434C151.169,311.181,151.92,312.045,154.834,312.045
				 M168.099,267.1L168.099,267.1c-0.607,0-6.834,0.561-8.605,1.259c-3.956,1.561-5.438,5.743-6.367,9.629l-1.624,7.197
				c-0.028,0.134-4.251,19.853-5.183,23.98c-0.727,3.223-0.588,5.165,0.463,6.495c1.111,1.406,3.208,2.024,7.014,2.068l0.18,0.001
				c1.035,0,2.016-0.091,2.916-0.271c4.588-0.451,6.436-2.57,7.896-9.041c0.017-0.074,0.213-0.893,0.534-2.23
				c1.503-6.266,5.494-22.911,6.885-29.082c1.071-4.744,1.085-7.127,0.051-8.5c-0.922-1.223-2.522-1.414-4.082-1.503
				C168.163,267.101,168.113,267.1,168.099,267.1L168.099,267.1z M154.834,311.277c-1.245,0-1.985-0.169-2.263-0.518
				c-0.273-0.341-0.278-1.07-0.017-2.229c0.296-1.313,0.995-4.543,1.803-8.283c1.782-8.238,4.221-19.521,4.687-21.103
				c0.074-0.25,0.145-0.498,0.214-0.743c0.613-2.168,0.999-3.306,2.396-3.429c0.029-0.002,0.058-0.006,0.086-0.012
				c0.411-0.084,1.33-0.147,2.731-0.189c0.095-0.003,0.159-0.004,0.221-0.004c0.682,0,1.132,0.114,1.301,0.331
				c0.355,0.455,0.008,1.836-0.358,3.299c-0.104,0.411-0.212,0.845-0.317,1.297c-1.396,6.032-5.001,20.887-6.359,26.48
				c-0.478,1.968-0.572,2.357-0.582,2.401c-0.514,2.275-1.146,2.637-3.051,2.693C155.156,311.274,154.992,311.277,154.834,311.277
				L154.834,311.277z"/>
		</g>
	</g>
	<g>
		<g>
			<path d="M322.803,304.981c-5.001,0-10.311-0.061-10.311-0.061c-0.119-0.001-0.23-0.058-0.302-0.152
				c-0.072-0.094-0.095-0.217-0.064-0.331l15.392-57.212c0.043-0.16,0.184-0.275,0.35-0.284c0.55-0.03,13.476-0.73,14.035-0.742
				l0.244-0.005c0.418-0.009,0.826-0.018,1.219-0.018c1.581,0,3.354,0.108,4.385,1.397c1.177,1.473,1.235,4.201,0.187,8.848
				c-1.243,5.506-4.166,17.672-8.688,36.16c-0.235,0.962-0.373,1.524-0.383,1.568c-1.798,7.981-4.031,10.597-9.192,10.761
				C328.228,304.958,325.916,304.981,322.803,304.981z M321.273,297.281c1.424,0.097,3.333,0.159,5.682,0.187
				c0,0,0.209,0.001,0.21,0.001c0.853,0,1.627-0.069,2.299-0.207c1.609-0.33,2.21-0.454,2.957-3.759
				c0.044-0.195,8.395-35.282,8.395-35.282c0.455-1.908,0.729-3.06,0.385-3.507c-0.356-0.462-1.663-0.526-3.772-0.576l-0.267-0.002
				c-0.911,0-3.255,0.045-4.704,0.089L321.273,297.281z"/>
			<path d="M343.366,246.562c3.771,0,6.225,0.789,4.198,9.777c-2.173,9.629-9.013,37.473-9.07,37.728
				c-1.835,8.147-4.1,10.312-8.83,10.462c-1.64,0.053-4.207,0.069-6.86,0.069c-4.999,0-10.306-0.061-10.306-0.061l15.392-57.212
				c0,0,13.463-0.729,14.021-0.741C342.412,246.574,342.899,246.562,343.366,246.562 M327.165,297.853
				c0.885,0,1.684-0.073,2.377-0.215c1.823-0.374,2.492-0.675,3.254-4.05c0.053-0.231,6.049-25.425,8.339-35.048
				c1.07-4.497,1.198-4.67-3.697-4.786c-0.066-0.001-0.16-0.002-0.276-0.002c-0.99,0-3.62,0.053-5.003,0.099l-11.372,43.779
				c1.131,0.09,3.032,0.186,6.165,0.222C327.023,297.853,327.094,297.853,327.165,297.853 M343.366,245.794
				c-0.396,0-0.807,0.008-1.228,0.017l-0.244,0.005c-0.565,0.012-13.497,0.712-14.047,0.742c-0.332,0.018-0.614,0.247-0.7,0.567
				l-15.392,57.212c-0.062,0.229-0.014,0.474,0.129,0.663c0.144,0.188,0.366,0.301,0.604,0.304
				c0.053,0.001,5.369,0.062,10.315,0.062c3.117,0,5.433-0.024,6.884-0.07c5.319-0.169,7.73-2.96,9.555-11.061
				c0.012-0.052,0.149-0.611,0.381-1.561c4.522-18.491,7.446-30.659,8.689-36.167c1.076-4.771,0.996-7.6-0.262-9.172
				C346.914,245.913,345.036,245.794,343.366,245.794L343.366,245.794z M332.757,254.601c1.451-0.042,3.554-0.081,4.405-0.081
				c0.108,0,0.196,0,0.258,0.002c1.428,0.034,3.207,0.076,3.477,0.427c0.233,0.302-0.085,1.638-0.454,3.184l-0.055,0.23
				l-1.411,5.929c-2.741,11.52-6.885,28.929-6.929,29.125c-0.692,3.064-1.148,3.158-2.66,3.469
				c-0.647,0.132-1.395,0.199-2.223,0.199l-0.204-0.001c-2.437-0.028-4.099-0.093-5.199-0.157L332.757,254.601L332.757,254.601z"/>
		</g>
	</g>
	<g>
		<g>
			<path d="M175.097,315.311c-2.383-0.027-3.959-0.566-4.82-1.647c-1.19-1.496-0.721-3.642-0.308-5.534
				c0.074-0.336,0.146-0.664,0.205-0.977c0.801-4.219,8.414-39.975,8.49-40.336c0.037-0.171,0.185-0.296,0.36-0.304
				c0,0,5.352-0.219,5.357-0.219c0.115,0,0.224,0.051,0.297,0.14c0.076,0.093,0.104,0.217,0.076,0.333
				c-0.076,0.317-7.648,31.721-8.48,36.388c-0.123,0.689-0.302,1.351-0.475,1.989c-0.377,1.392-0.702,2.593-0.197,3.261
				c0.385,0.509,1.275,0.765,2.722,0.781l0.583,0.004c1.211,0,1.886-0.052,2.379-0.089l0.416-0.029
				c1.225-0.063,1.766-2.544,2.243-4.732c0.105-0.484,0.209-0.959,0.319-1.402c0.254-1.035,1.072-4.977,2.107-9.968
				c1.969-9.493,4.666-22.495,6.081-28.067c0.041-0.161,0.181-0.278,0.347-0.289c0,0,5.186-0.336,5.194-0.336
				c0.109,0,0.213,0.046,0.287,0.128c0.079,0.088,0.112,0.208,0.091,0.324c-1.473,8.142-8.628,41.396-9.463,44.537
				c-0.913,3.44-3.028,5.573-5.804,5.851c-1.602,0.16-6.027,0.195-7.451,0.195L175.097,315.311z"/>
			<path d="M197.994,264.661c-1.504,8.315-8.678,41.579-9.456,44.507c-0.777,2.928-2.591,5.279-5.471,5.567
				c-1.513,0.15-5.678,0.193-7.412,0.193c-0.233,0-0.422-0.001-0.555-0.002c-6.911-0.079-5.142-4.588-4.549-7.703
				c0.81-4.263,8.489-40.327,8.489-40.327l5.342-0.219c0,0-7.641,31.678-8.485,36.41c-0.604,3.393-2.696,6.423,2.424,6.482
				c0.208,0.003,0.404,0.004,0.588,0.004c1.608,0,2.301-0.091,2.815-0.118c1.824-0.096,2.27-3.812,2.914-6.427
				c0.733-2.979,6.014-29.476,8.188-38.032L197.994,264.661 M184.382,266.678h0.005 M197.994,263.893c-0.017,0-0.033,0-0.05,0.002
				l-5.169,0.336c-0.332,0.021-0.612,0.254-0.694,0.577c-1.418,5.581-4.115,18.586-6.085,28.083
				c-1.034,4.987-1.851,8.926-2.104,9.954c-0.11,0.446-0.214,0.925-0.321,1.412c-0.381,1.745-0.956,4.383-1.888,4.432
				c-0.128,0.007-0.266,0.017-0.425,0.029c-0.487,0.037-1.153,0.088-2.35,0.088c-0.181,0-0.373-0.002-0.578-0.004
				c-1.284-0.016-2.121-0.232-2.421-0.629c-0.392-0.519-0.075-1.689,0.261-2.929c0.175-0.647,0.356-1.316,0.482-2.022
				c0.813-4.561,8.091-34.772,8.461-36.307c0.024-0.075,0.038-0.155,0.038-0.238c0-0.424-0.341-0.768-0.766-0.768h-0.005
				c-0.013,0-0.025,0-0.037,0.001l-5.336,0.219c-0.351,0.014-0.647,0.264-0.72,0.607c-0.077,0.361-7.69,36.122-8.492,40.344
				c-0.059,0.311-0.13,0.635-0.203,0.967c-0.411,1.878-0.921,4.216,0.382,5.854c0.937,1.178,2.61,1.765,5.115,1.793
				c0.136,0.002,0.327,0.003,0.563,0.003c1.428,0,5.871-0.037,7.488-0.198c2.944-0.294,5.18-2.53,6.137-6.134
				c0.835-3.145,7.996-36.421,9.469-44.567c0.042-0.232-0.025-0.472-0.182-0.648C198.421,263.986,198.212,263.893,197.994,263.893
				L197.994,263.893z"/>
		</g>
	</g>
	<g>
		<g>
			<path d="M121.814,317.722c-0.116,0-0.225-0.052-0.298-0.142c-0.073-0.09-0.102-0.209-0.078-0.322l9.994-46.929
				c0.035-0.164,0.173-0.287,0.34-0.302c0.095-0.009,9.521-0.878,13.389-0.878c0.704,0,1.187,0.028,1.475,0.085
				c0.675,0.135,1.039,0.969,1.11,2.55c0.218,4.828-2.523,17.632-5.422,19.86c3.614,4.244-3.404,22.437-3.479,22.625
				c-1.038,2.597-4.591,3.184-6.617,3.302c-1.889,0.111-10.065,0.149-10.412,0.15C121.815,317.722,121.815,317.722,121.814,317.722z
				 M127.682,311.413c1.006,0.091,2.138,0.142,3.172,0.142c2.378,0,3.256-0.258,3.388-0.395c0.776-1.306,4.144-13.866,3.134-15.134
				c-0.685-0.013-3.729-0.066-6.007-0.071L127.682,311.413z M132.595,290.088c0.974,0.131,2.267,0.264,3.5,0.265
				c1.218,0,2.156-0.128,2.791-0.379c0.708-1.076,3.514-12.956,3.548-14.921c-0.113-0.009-0.247-0.013-0.401-0.013
				c-0.951,0-2.555,0.175-4.412,0.377c-0.725,0.079-1.496,0.163-2.298,0.245L132.595,290.088z"/>
			<path d="M145.162,269.532c0.638,0,1.126,0.023,1.399,0.078c2.598,0.521-1.559,20.969-4.881,21.953
				c3.711,2.746-1.649,18.7-3.191,22.563c-0.966,2.417-4.382,2.95-6.283,3.062c-1.9,0.111-10.392,0.149-10.392,0.149l9.994-46.929
				C131.809,270.409,141.267,269.532,145.162,269.532 M136.096,290.736c1.179,0,2.257-0.119,3.006-0.436
				c0.684-0.287,4.104-15.005,3.674-15.587c-0.177-0.041-0.428-0.059-0.742-0.059c-1.385,0-4.009,0.351-7.034,0.653l-2.857,15.104
				C133.38,290.593,134.799,290.736,136.096,290.736 M130.854,311.938c1.829,0,3.434-0.157,3.701-0.557
				c0.445-0.668,4.629-14.618,2.969-15.736c0,0-3.86-0.074-6.458-0.074l-3.86,16.181
				C128.298,311.867,129.626,311.938,130.854,311.938 M145.163,268.764L145.163,268.764c-3.887,0-13.037,0.845-13.425,0.88
				c-0.334,0.031-0.61,0.276-0.68,0.604l-9.994,46.929c-0.048,0.228,0.009,0.465,0.155,0.645c0.146,0.18,0.365,0.283,0.596,0.283
				c0.001,0,0.002,0,0.003,0c0.348-0.001,8.534-0.039,10.433-0.15c2.116-0.124,5.834-0.749,6.951-3.543
				c0.075-0.188,6.929-17.745,3.633-22.72c3.052-3.033,5.49-15.612,5.295-19.926c-0.052-1.137-0.254-2.676-1.418-2.909
				C146.394,268.794,145.902,268.764,145.163,268.764L145.163,268.764z M135.648,276.014c0.701-0.072,1.376-0.146,2.015-0.216
				c1.837-0.2,3.424-0.374,4.356-0.375c-0.289,2.627-2.68,12.723-3.404,14.241c-0.448,0.152-1.22,0.304-2.519,0.304
				c-1.051,0-2.148-0.099-3.048-0.209L135.648,276.014L135.648,276.014z M128.159,311.067l3.513-14.727
				c1.998,0.007,4.477,0.048,5.434,0.065c0.56,1.996-2.359,12.736-3.161,14.481c-0.277,0.112-1.181,0.283-3.091,0.283
				C129.979,311.171,129.035,311.134,128.159,311.067L128.159,311.067z"/>
		</g>
	</g>
	<g>
		<g>
			<path d="M198.669,313.905c-1.123,0-2.254-0.013-3.322-0.046c-0.418-0.013-0.766-0.189-1.004-0.51
				c-0.824-1.11-0.208-3.748,0.434-6.134l9.807-43.489c0.037-0.165,0.178-0.286,0.347-0.298c0,0,5.552-0.402,5.561-0.402
				c0.112,0,0.219,0.049,0.292,0.135c0.079,0.093,0.109,0.219,0.081,0.338c-0.09,0.38-9.04,38.038-9.87,41.225l-0.614,2.359
				c0,0,7.679-0.154,7.682-0.154c0.113,0,0.22,0.05,0.293,0.136c0.075,0.089,0.105,0.206,0.083,0.319l-1.144,6.027
				c-0.033,0.175-0.182,0.305-0.36,0.313C206.896,313.726,202.822,313.905,198.669,313.905z"/>
			<path d="M210.492,263.41h0.005 M210.492,263.41c0,0-9.029,37.997-9.868,41.217c-0.398,1.527-0.741,2.85-0.741,2.85l8.181-0.164
				l-1.144,6.027c0,0-4.057,0.182-8.25,0.182c-1.119,0-2.247-0.014-3.31-0.046c-1.797-0.056-0.808-3.941-0.211-6.16l9.811-43.504
				L210.492,263.41 M210.497,262.642h-0.005c-0.021,0-0.043,0.001-0.064,0.003l-5.524,0.401c-0.337,0.024-0.619,0.267-0.693,0.597
				l-9.811,43.504c-0.817,3.037-1.196,5.31-0.363,6.432c0.311,0.418,0.76,0.648,1.3,0.665c0.993,0.03,2.114,0.046,3.334,0.046
				c4.162,0,8.244-0.181,8.284-0.182c0.356-0.017,0.654-0.274,0.72-0.624l1.144-6.027c0.043-0.228-0.019-0.463-0.168-0.64
				c-0.146-0.172-0.361-0.271-0.586-0.271c-0.005,0-0.01,0-0.016,0l-7.167,0.144l0.486-1.868c0.816-3.132,9.455-39.476,9.858-41.174
				c0.024-0.075,0.038-0.154,0.038-0.236C211.262,262.986,210.921,262.642,210.497,262.642L210.497,262.642z"/>
		</g>
	</g>
	<g>
		<g>
			<path d="M240.171,311.3c-0.967,0-2.767-0.043-3.506-0.076c-0.107-0.005-0.288-0.101-0.357-0.184
				c-0.94-1.129,0.867-18.372,5.372-51.249c0.102-0.745,0.162-1.176,0.167-1.229c-0.006-0.205,0.148-0.33,0.353-0.346
				c0,0,6.478-0.495,6.487-0.495c0.104,0,0.205,0.042,0.278,0.119c0.08,0.083,0.117,0.198,0.103,0.312
				c-1.052,8.512-2.39,16.769-3.57,24.054c-0.925,5.707-1.744,10.761-2.291,15.053c3.514-7.865,11.033-27.522,14.437-36.421
				c1.706-4.459,1.706-4.459,1.984-4.459l6.664-0.956c0.019-0.003,0.037-0.004,0.055-0.004c0.179,0,0.338,0.125,0.375,0.306
				c0.025,0.119-0.009,0.238-0.083,0.325c-0.52,0.919-7.055,17.036-12.313,30.004c-4.476,11.038-8.703,21.465-9.323,22.797
				c-0.238,0.513-1.238,2.202-4.116,2.428C240.873,311.285,240.758,311.3,240.171,311.3z"/>
			<path d="M266.348,255.802h0.005 M266.348,255.802L266.348,255.802C266.347,255.802,266.347,255.802,266.348,255.802
				 M266.347,255.802c-0.336,0.092-20.284,49.865-21.69,52.887c-0.272,0.587-1.24,2.007-3.798,2.207
				c-0.065,0.015-0.325,0.021-0.687,0.021c-1.001,0-2.793-0.045-3.489-0.076c-1.76-0.081,5.55-52.132,5.547-52.24l6.458-0.494
				c-2.013,16.283-5.048,31.486-6.142,41.467c3.58-7.059,17.019-42.811,17.083-42.811l0,0L266.347,255.802 M248.688,258.105h0.005
				 M266.353,255.034h-0.005c-0.042,0-0.082,0.003-0.122,0.01l-6.654,0.951c-0.482,0.006-0.525,0.118-1.104,1.623
				c-0.281,0.729-0.684,1.784-1.183,3.087c-3.08,8.052-9.531,24.915-13.326,33.859c0.517-3.649,1.184-7.767,1.918-12.296
				c1.178-7.271,2.513-15.509,3.564-24.006c0.01-0.05,0.016-0.103,0.016-0.156c0-0.424-0.341-0.768-0.766-0.768h-0.004h0
				c-0.001,0-0.003,0-0.005,0l0,0c-0.001,0-0.001,0-0.002,0c-0.021,0-0.041,0.001-0.06,0.002l-6.45,0.494
				c-0.376,0.029-0.671,0.326-0.706,0.693c-0.011,0.086-0.068,0.509-0.165,1.212c-6.812,49.715-5.743,50.998-5.287,51.546
				c0.163,0.196,0.388,0.311,0.634,0.321c0.744,0.034,2.552,0.077,3.524,0.077c0.5,0,0.681-0.011,0.783-0.025
				c3.058-0.253,4.139-2.088,4.398-2.646c0.625-1.341,4.659-11.291,9.331-22.813c5.188-12.794,11.627-28.677,12.275-29.929
				c0.1-0.129,0.16-0.292,0.16-0.467C267.118,255.378,266.777,255.034,266.353,255.034L266.353,255.034z"/>
		</g>
	</g>
	<g>
		<g>
			<path d="M251.2,310.013c-0.129,0-0.25-0.064-0.321-0.173c-0.073-0.11-0.083-0.25-0.028-0.37l25.055-54.891
				c0.056-0.124,0.173-0.208,0.308-0.223c0,0,5.363-0.572,5.377-0.572c0.098,0,0.192,0.037,0.264,0.105
				c0.082,0.077,0.125,0.187,0.119,0.299l-2.915,53.485c-0.011,0.201-0.174,0.359-0.375,0.363c0,0-6.349,0.139-6.352,0.139
				c-0.103,0-0.201-0.041-0.273-0.114c-0.074-0.075-0.114-0.178-0.11-0.284l0.602-16.194l-6.312,0.083l-8.289,17.984
				c-0.062,0.133-0.193,0.22-0.34,0.223C257.609,309.873,251.203,310.013,251.2,310.013z M267.749,285.701l6.387-0.085l1.14-16.325
				L267.749,285.701z"/>
		</g>
		<g>
			<path d="M281.591,254.168l-2.915,53.485l-6.344,0.139l0.616-16.599l-6.957,0.092l-8.391,18.204l-6.4,0.14l25.055-54.891
				L281.591,254.168 M267.146,286.093l7.348-0.098l1.312-18.779L267.146,286.093 M281.591,253.4c-0.027,0-0.054,0.001-0.082,0.004
				l-5.336,0.57c-0.27,0.029-0.504,0.198-0.617,0.445l-25.055,54.891c-0.109,0.24-0.088,0.52,0.058,0.74
				c0.142,0.217,0.383,0.346,0.641,0.346c0.005,0,0.011,0,0.017,0l6.4-0.14c0.293-0.006,0.558-0.18,0.681-0.446l8.188-17.764
				l5.665-0.075l-0.586,15.792c-0.008,0.211,0.072,0.416,0.221,0.567c0.144,0.146,0.341,0.229,0.547,0.229c0.005,0,0.011,0,0.017,0
				l6.344-0.139c0.401-0.009,0.729-0.325,0.75-0.726l2.915-53.485c0.012-0.225-0.075-0.444-0.238-0.599
				C281.976,253.475,281.787,253.4,281.591,253.4L281.591,253.4z M268.351,285.309l6.395-13.941l-0.969,13.869L268.351,285.309
				L268.351,285.309z"/>
		</g>
	</g>
	<g>
		<g>
			<path d="M283.692,306.949c-0.118,0-0.229-0.054-0.302-0.146c-0.075-0.095-0.1-0.22-0.069-0.336l15.067-56.522
				c0.041-0.151,0.169-0.263,0.324-0.282c1.357-0.167,2.649-0.332,3.873-0.488c4.321-0.553,7.734-0.99,10.229-0.99
				c2.365,0,3.721,0.396,4.396,1.282c0.5,0.658,0.587,1.547,0.264,2.72c-0.327,1.185-6.815,24.316-7.215,25.672
				c-0.899,3.054-2.856,3.695-4.34,3.695c-0.143,0-0.272-0.006-0.385-0.014l1.293,23.535c0.006,0.103-0.03,0.203-0.099,0.279
				c-0.068,0.075-0.165,0.121-0.267,0.126c0,0-6.689,0.311-6.695,0.311c-0.097,0-0.191-0.037-0.263-0.104
				c-0.076-0.071-0.119-0.17-0.121-0.273l-0.415-23.216c-0.354,0.014-0.832,0.042-1.309,0.07c-0.558,0.033-1.116,0.065-1.462,0.077
				l-5.954,24.175c-0.042,0.169-0.19,0.288-0.364,0.292C289.878,306.813,283.695,306.949,283.692,306.949z M298.433,274.873
				c1.578,0,4.145-0.079,5.793-0.224c0.862-0.076,1.352-0.421,1.807-2.178c0.627-2.429,1.98-7.231,2.968-10.737
				c0.524-1.859,0.959-3.403,1.16-4.145c0.086-0.319,0.118-0.922-0.149-1.272c-0.16-0.209-0.419-0.312-0.79-0.312
				c-0.086,0-0.178,0.006-0.276,0.018c-0.731,0.087-1.621,0.132-2.563,0.18c-1.155,0.058-2.347,0.118-3.355,0.261l-5.198,18.402
				C297.999,274.871,298.202,274.873,298.433,274.873z"/>
		</g>
		<g>
			<path d="M312.814,248.568c3.462,0,5.02,0.866,4.29,3.516c-0.349,1.266-6.821,24.338-7.213,25.666
				c-0.89,3.022-2.854,3.42-3.972,3.42c-0.399,0-0.69-0.051-0.786-0.051c-0.002,0-0.005,0-0.007,0l1.317,23.978l-6.677,0.311
				l-0.422-23.601c-0.02-0.001-0.044-0.001-0.073-0.001c-0.559,0-2.72,0.16-3.284,0.16c-0.039,0-0.07,0-0.092-0.002l-6.025,24.465
				l-6.178,0.137l15.067-56.521C304.853,249.297,309.636,248.568,312.814,248.568 M298.433,275.256c1.515,0,4.132-0.076,5.827-0.225
				c1.089-0.096,1.664-0.608,2.145-2.464c0.953-3.688,3.54-12.711,4.127-14.877c0.141-0.522,0.243-2.068-1.31-2.068
				c-0.1,0-0.208,0.006-0.322,0.02c-1.68,0.2-4.294,0.178-6.175,0.479l-5.396,19.105
				C297.497,275.247,297.896,275.256,298.433,275.256 M312.814,247.801L312.814,247.801c-2.519,0-5.942,0.438-10.276,0.993
				c-1.224,0.157-2.515,0.322-3.872,0.488c-0.311,0.038-0.568,0.262-0.649,0.564l-15.067,56.521
				c-0.062,0.233-0.011,0.482,0.139,0.673c0.146,0.186,0.368,0.293,0.604,0.293c0.006,0,0.011,0,0.017,0l6.178-0.137
				c0.347-0.008,0.646-0.247,0.729-0.584l5.885-23.895c0.331-0.016,0.749-0.04,1.181-0.065c0.314-0.019,0.634-0.038,0.909-0.053
				l0.408,22.821c0.003,0.207,0.091,0.404,0.242,0.547c0.143,0.134,0.331,0.207,0.525,0.207c0.012,0,0.024,0,0.036-0.001
				l6.677-0.311c0.205-0.009,0.397-0.1,0.534-0.252c0.137-0.151,0.208-0.353,0.197-0.557l-1.27-23.117
				c1.326-0.006,3.676-0.534,4.688-3.971c0.4-1.357,6.89-24.494,7.216-25.679c0.357-1.296,0.25-2.295-0.329-3.054
				C316.76,248.243,315.311,247.801,312.814,247.801L312.814,247.801L312.814,247.801z M303.328,256.812
				c0.937-0.117,2.021-0.172,3.074-0.225c0.949-0.048,1.845-0.093,2.589-0.182c0.082-0.01,0.159-0.015,0.231-0.015l0,0
				c0.362,0,0.455,0.121,0.485,0.161c0.163,0.212,0.153,0.682,0.084,0.938c-0.201,0.74-0.635,2.283-1.159,4.14
				c-0.988,3.508-2.342,8.312-2.971,10.746c-0.467,1.803-0.909,1.842-1.468,1.891c-1.638,0.144-4.19,0.222-5.76,0.222
				c-0.034,0-0.066,0-0.098,0L303.328,256.812L303.328,256.812z"/>
		</g>
	</g>
</g>
<g>
	<g>
		<g>
			<path d="M162.45,379.744c-0.129,0-0.249-0.065-0.319-0.173c-0.07-0.108-0.081-0.245-0.027-0.363l21.174-46.979
				c0.062-0.137,0.197-0.224,0.346-0.224c0.004,0,5.629,0.172,5.629,0.172c0.101,0.003,0.197,0.047,0.267,0.121
				c0.069,0.074,0.105,0.173,0.101,0.274l-1.923,46.76c-0.008,0.204-0.176,0.364-0.379,0.364c0,0-5.539-0.013-5.539-0.013
				c-0.103,0-0.2-0.042-0.271-0.115c-0.072-0.073-0.11-0.173-0.107-0.275l0.401-14.313l-6.308-0.071l-6.755,14.598
				c-0.062,0.135-0.196,0.221-0.344,0.221C168.395,379.728,162.451,379.744,162.45,379.744z M182.73,359.21l0.365-13.567
				l-5.831,13.506L182.73,359.21z"/>
		</g>
		<g>
			<path d="M183.625,332.385l5.618,0.172l-1.923,46.76l-5.538-0.013l0.412-14.699l-6.94-0.078l-6.858,14.821l-5.944,0.017
				L183.625,332.385 M183.1,359.594l0.428-15.912l-6.839,15.841L183.1,359.594 M183.625,331.625c-0.298,0-0.57,0.175-0.693,0.447
				l-21.174,46.979c-0.106,0.235-0.085,0.509,0.055,0.726c0.14,0.217,0.38,0.347,0.638,0.347c0,0,0.001,0,0.002,0l5.944-0.017
				c0.295-0.001,0.563-0.173,0.688-0.44l6.652-14.375l5.676,0.063l-0.39,13.927c-0.005,0.205,0.072,0.403,0.214,0.551
				c0.143,0.146,0.339,0.23,0.543,0.23l5.538,0.013c0.001,0,0.001,0,0.002,0c0.408,0,0.743-0.321,0.759-0.729l1.923-46.76
				c0.008-0.203-0.065-0.4-0.203-0.549s-0.33-0.235-0.533-0.242l-5.618-0.172C183.64,331.625,183.632,331.625,183.625,331.625
				L183.625,331.625z M177.839,358.775l4.823-11.171l-0.302,11.221L177.839,358.775L177.839,358.775z"/>
		</g>
	</g>
	<g>
		<g>
			<path d="M206.292,379.862c-3.652-0.041-14.777-0.247-14.777-0.247c-0.117-0.002-0.227-0.059-0.297-0.152
				s-0.093-0.215-0.063-0.327l12.736-46.673c0.045-0.164,0.193-0.278,0.363-0.28c0,0,8.84-0.093,11.5-0.093
				c0.43,0,0.705,0.004,0.767,0.009c2.239,0.183,4.104,0.335,5.129,1.766c0.962,1.344,0.985,3.667,0.07,7.312
				c-1.106,4.402-3.498,13.751-7.107,27.786l-0.316,1.231c-1.538,6.124-3.324,9.67-7.902,9.67
				C206.392,379.863,206.293,379.862,206.292,379.862z M198.834,373.482c1.234,0.076,4.126,0.175,5.606,0.175
				c0.689,0,0.856-0.021,0.892-0.027c1.308-0.235,1.749-0.314,2.402-2.92l0.187-0.698c3.539-13.209,6.104-22.939,7.222-27.401
				c0.375-1.488,0.712-3.071,0.376-3.524c-0.188-0.254-0.737-0.279-1.496-0.315c-0.284-0.013-0.596-0.027-0.937-0.056
				c-0.114-0.009-0.596-0.023-2.524-0.023l-1.721,0.003L198.834,373.482z"/>
			<path d="M215.753,332.471c0.412,0,0.675,0.002,0.735,0.007c3.949,0.322,6.896,0.505,4.862,8.605
				c-1.94,7.722-7.373,28.813-7.424,29.018c-1.628,6.482-3.424,9.383-7.534,9.383c-0.032,0-0.064-0.001-0.097-0.001
				c-3.651-0.041-14.775-0.247-14.775-0.247l12.736-46.673C204.257,332.563,213.094,332.471,215.753,332.471 M204.441,374.037
				c0.481,0,0.831-0.01,0.959-0.033c1.478-0.266,2.024-0.495,2.703-3.201c0.048-0.186,5.468-20.359,7.409-28.1
				c1.205-4.786,0.317-4.143-2.394-4.367c-0.261-0.02-1.455-0.025-2.555-0.025c-1.045,0-2.007,0.005-2.007,0.005l-10.216,35.511
				C199.058,373.901,202.653,374.037,204.441,374.037 M215.753,331.71c-2.633,0-11.416,0.092-11.504,0.093
				c-0.34,0.004-0.636,0.232-0.725,0.56l-12.736,46.673c-0.062,0.227-0.016,0.468,0.125,0.656c0.141,0.188,0.36,0.3,0.594,0.304
				c0.111,0.002,11.168,0.207,14.78,0.247l0.106,0.001c4.826,0,6.687-3.651,8.271-9.957c0.008-0.033,0.122-0.474,0.316-1.229
				c3.61-14.035,6.001-23.385,7.108-27.788c0.958-3.813,0.917-6.165-0.129-7.626c-1.128-1.573-3.167-1.74-5.326-1.916l-0.082-0.007
				C216.506,331.717,216.435,331.71,215.753,331.71L215.753,331.71z M209.129,339.073c0.374-0.001,0.893-0.002,1.434-0.002
				c1.986,0,2.408,0.016,2.497,0.022c0.341,0.028,0.658,0.043,0.946,0.057c0.421,0.02,1.127,0.053,1.208,0.162
				c0.103,0.139,0.181,0.738-0.439,3.205c-1.119,4.46-3.683,14.189-7.221,27.396c-0.116,0.433-0.182,0.679-0.187,0.699
				c-0.595,2.372-0.915,2.43-2.102,2.643c-0.012,0.002-0.163,0.021-0.825,0.021c-1.384,0-3.759-0.08-5.109-0.148L209.129,339.073
				L209.129,339.073z"/>
		</g>
	</g>
	<g>
		<g>
			<path d="M217.395,379.92c-0.117-0.001-0.227-0.057-0.298-0.149c-0.071-0.094-0.095-0.214-0.065-0.327l12.509-47.388
				c0.044-0.167,0.195-0.283,0.367-0.283c0.001,0,6.173,0.068,6.173,0.068c0.116,0.001,0.225,0.056,0.296,0.147
				c0.071,0.092,0.096,0.212,0.068,0.324l-11.847,47.395c-0.042,0.17-0.194,0.288-0.369,0.288
				C224.229,379.995,217.395,379.92,217.395,379.92z"/>
			<path d="M229.908,332.152l6.169,0.068l-11.847,47.395l-6.831-0.075L229.908,332.152 M229.908,331.393
				c-0.345,0-0.646,0.232-0.735,0.565l-12.509,47.388c-0.06,0.227-0.012,0.469,0.13,0.654c0.142,0.187,0.362,0.297,0.596,0.3
				l6.831,0.075c0.003,0,0.005,0,0.008,0c0.348,0,0.652-0.237,0.737-0.575l11.847-47.395c0.056-0.226,0.006-0.465-0.136-0.649
				c-0.142-0.184-0.361-0.292-0.593-0.295l-6.169-0.068C229.914,331.393,229.911,331.393,229.908,331.393L229.908,331.393z"/>
		</g>
	</g>
	<g>
		<g>
			<path d="M243.137,380.366c-1.242,0-2.896-0.096-4.116-0.238c-3.37-0.392-4.907-0.948-5.67-2.054
				c-0.918-1.33-0.503-3.355,0.234-6.294c1.009-4.016,7.269-32.314,7.332-32.6l0.122-0.467c0.856-3.281,1.922-7.364,7.32-7.521
				c1.47-0.043,5.779-0.071,7.984-0.071c0.775,0,1.314,0.004,1.427,0.012c2.128,0.142,3.326,0.601,4.005,1.534
				c1.179,1.62,0.544,4.604-0.642,9.325c-0.884,3.52-2.489,10.29-4.042,16.838c-1.727,7.283-3.358,14.161-3.828,15.856
				c-1.294,4.665-4.16,5.603-8.363,5.603l-0.332-0.002C244.329,380.337,243.823,380.366,243.137,380.366z M243.283,373.488
				c2.361,0,4.608-0.246,5.057-2.034l0.038-0.163c0.96-4.095,5.838-24.866,7.577-31.626c0.252-0.979,0.234-1.639-0.054-2.017
				c-0.47-0.617-1.766-0.641-3.407-0.671c-0.439-0.008-0.904-0.016-1.387-0.036c-0.116-0.005-0.229-0.008-0.341-0.008
				c-2.793,0-4.381,1.461-4.999,4.596c-0.429,2.181-5.229,23.862-6.292,28.097c-0.417,1.657-0.415,2.595,0.006,3.136
				c0.379,0.485,1.193,0.722,2.488,0.722h0.207L243.283,373.488z"/>
			<path d="M256.344,331.501c0.762,0,1.291,0.004,1.401,0.011c5.125,0.342,4.979,2.588,3.02,10.388
				c-1.867,7.437-6.979,29.479-7.867,32.686c-1.228,4.425-3.907,5.324-7.997,5.324c-0.108,0-0.217-0.001-0.327-0.002
				c-0.303,0.055-0.817,0.079-1.436,0.079c-1.231,0-2.872-0.096-4.072-0.235c-6.434-0.749-6.555-2.132-5.111-7.878
				c1.021-4.067,7.334-32.61,7.334-32.61c0.89-3.365,1.73-7.534,7.082-7.69C249.824,331.53,254.095,331.501,256.344,331.501
				 M241.971,373.863c0.021,0,0.042,0,0.063,0c0.047,0,0.095,0,0.144,0c0.34,0,0.713,0.005,1.105,0.005
				c2.168,0,4.883-0.165,5.426-2.321c0.043-0.182,5.702-24.352,7.614-31.787c0.914-3.555-1.619-3.048-5.199-3.198
				c-0.121-0.005-0.241-0.008-0.357-0.008c-3.327,0-4.807,2.035-5.371,4.902c-0.468,2.377-5.26,23.98-6.288,28.077
				C238.375,372.445,238.725,373.863,241.971,373.863 M256.344,330.741c-2.208,0-6.522,0.028-7.996,0.071
				c-5.683,0.166-6.835,4.581-7.677,7.806l-0.118,0.45c-0.07,0.315-6.329,28.609-7.336,32.619c-0.764,3.039-1.188,5.141-0.179,6.603
				c0.953,1.38,2.979,1.871,5.939,2.216c1.232,0.144,2.904,0.24,4.16,0.24c0.658,0,1.161-0.026,1.497-0.078l0.267,0.001
				c4.261,0,7.375-1,8.729-5.881c0.472-1.702,2.104-8.584,3.831-15.87c1.552-6.547,3.158-13.316,4.041-16.834
				c1.213-4.828,1.857-7.887,0.581-9.641c-0.752-1.034-2.034-1.54-4.286-1.689C257.744,330.75,257.609,330.741,256.344,330.741
				L256.344,330.741z M241.971,373.104c-1.154,0-1.891-0.193-2.188-0.575c-0.333-0.427-0.313-1.319,0.062-2.81
				c1.063-4.237,5.868-25.935,6.297-28.116c0.576-2.926,2.045-4.289,4.625-4.289c0.106,0,0.215,0.003,0.326,0.007
				c0.486,0.021,0.953,0.029,1.395,0.037c1.416,0.026,2.753,0.05,3.112,0.521c0.207,0.272,0.203,0.857-0.012,1.692
				c-1.739,6.764-6.618,27.538-7.579,31.635l-0.039,0.167c-0.384,1.524-2.479,1.736-4.687,1.736l-0.586-0.003l-0.519-0.002h-0.147
				H241.971L241.971,373.104z"/>
		</g>
	</g>
	<g>
		<g>
			<path d="M153.517,379.87c-0.206-0.004-0.371-0.172-0.372-0.377l-0.129-18.939c-0.306,0.009-0.682,0.027-1.055,0.045
				c-0.415,0.02-0.826,0.039-1.1,0.047l-4.915,18.607c-0.044,0.167-0.195,0.283-0.367,0.283c-0.003,0-5.635-0.141-5.635-0.141
				c-0.118-0.003-0.229-0.061-0.298-0.156c-0.07-0.096-0.091-0.218-0.057-0.331l13.249-44.854c0.043-0.146,0.17-0.253,0.322-0.271
				c4.129-0.459,6.974-0.664,9.225-0.664c3.511,0,5.546,0.531,6.404,1.671c0.486,0.646,0.587,1.478,0.301,2.473
				c-0.305,1.061-5.698,18.904-6.034,20.001c-0.727,2.372-2.481,2.87-3.825,2.87c-0.27,0-0.507-0.021-0.698-0.042l0.98,19.496
				c0.005,0.105-0.033,0.209-0.107,0.284c-0.071,0.074-0.17,0.115-0.272,0.115C159.132,379.988,153.517,379.87,153.517,379.87z
				 M152.301,354.41c0.227,0.006,0.536,0.011,0.938,0.011c1.238,0,3.02-0.042,4.209-0.134c0.933-0.07,1.577-0.355,1.903-1.56
				c0.534-1.973,1.678-5.871,2.514-8.718c0.451-1.537,0.827-2.815,0.999-3.427c0.03-0.106,0.167-0.653-0.098-1.004
				c-0.185-0.244-0.548-0.368-1.079-0.368c-0.068,0-0.139,0.002-0.213,0.006c-0.367,0.021-0.785,0.038-1.231,0.057
				c-1.167,0.048-2.479,0.102-3.555,0.243L152.301,354.41z"/>
		</g>
		<g>
			<path d="M162.385,333.5c4.697,0,7.122,0.941,6.34,3.658c-0.297,1.033-5.699,18.91-6.032,19.995
				c-0.682,2.227-2.34,2.602-3.462,2.602c-0.569,0-1.001-0.097-1.098-0.097c-0.001,0-0.002,0-0.003,0l1.003,19.95l-5.61-0.118
				l-0.131-19.321c-0.025-0.002-0.059-0.002-0.101-0.002c-0.507,0-2.151,0.102-2.627,0.102c-0.042,0-0.074,0-0.096-0.002
				l-4.989,18.89l-5.625-0.141l13.249-44.854C156.804,333.762,159.91,333.5,162.385,333.5 M153.239,354.801
				c1.258,0,3.034-0.041,4.239-0.135c0.893-0.067,1.83-0.324,2.241-1.839c0.814-3.011,3.013-10.373,3.512-12.141
				c0.124-0.437,0.332-1.855-1.543-1.855c-0.075,0-0.154,0.002-0.235,0.007c-1.383,0.078-3.516,0.106-5.06,0.336l-4.591,15.59
				C151.991,354.787,152.534,354.801,153.239,354.801 M162.385,332.74v0.76V332.74c-2.264,0-5.122,0.205-9.267,0.667
				c-0.304,0.033-0.558,0.246-0.645,0.54l-13.249,44.854c-0.067,0.227-0.024,0.471,0.115,0.662s0.359,0.307,0.595,0.313l5.625,0.141
				c0.006,0,0.013,0,0.019,0c0.344,0,0.646-0.231,0.735-0.565l4.843-18.335c0.242-0.01,0.531-0.023,0.822-0.037
				c0.226-0.012,0.454-0.022,0.66-0.031l0.126,18.548c0.002,0.412,0.333,0.746,0.744,0.755l5.61,0.118c0.005,0,0.011,0,0.016,0
				c0.205,0,0.402-0.083,0.545-0.23c0.147-0.151,0.225-0.356,0.214-0.567l-0.958-19.063c0.094,0.005,0.193,0.008,0.297,0.008
				c2.081,0,3.568-1.115,4.188-3.139c0.336-1.097,5.73-18.946,6.036-20.008c0.321-1.115,0.199-2.06-0.363-2.806
				C168.145,333.303,166.076,332.74,162.385,332.74L162.385,332.74z M156.982,339.863c1.011-0.117,2.205-0.166,3.276-0.21
				c0.448-0.019,0.869-0.036,1.237-0.057c0.067-0.004,0.131-0.006,0.192-0.006l0,0c0.389,0,0.671,0.079,0.776,0.217
				c0.113,0.15,0.098,0.453,0.036,0.672c-0.173,0.61-0.548,1.889-0.999,3.423c-0.836,2.849-1.981,6.749-2.516,8.727
				c-0.272,1.002-0.74,1.217-1.564,1.279c-1.181,0.092-2.951,0.132-4.182,0.132c-0.16,0-0.304,0-0.432-0.001L156.982,339.863
				L156.982,339.863z"/>
		</g>
	</g>
</g>
</svg>
